<svg width="1440" height="1024" viewBox="0 0 1440 1024" fill="none" xmlns="http://www.w3.org/2000/svg">
<g clip-path="url(#clip0_68_2)">
<rect width="1440" height="1024" fill="url(#paint0_linear_68_2)"/>
<g filter="url(#filter0_df_68_2)">
<path d="M221.119 30.9623L279.377 1.39374L374.845 23.4032L355.713 92.1384L233.51 72.9796L221.119 30.9623Z" fill="white" fill-opacity="0.1" shape-rendering="crispEdges"/>
<path d="M279.388 -19.6117L378.675 1.44489L393.019 -40.5586L264.134 -64.4949L279.388 -19.6117Z" fill="white" fill-opacity="0.1" shape-rendering="crispEdges"/>
<path d="M458.852 51.1355L397.752 37.7369L416.898 -59.6422L435.044 -69.1808L472.243 5.31227L458.852 51.1355Z" fill="white" fill-opacity="0.1" shape-rendering="crispEdges"/>
<path d="M547.662 23.4922L490.38 12.96L472.206 76.9218L392.967 60.6495L385.309 98.8373L524.696 122.779L547.662 23.4922Z" fill="white" fill-opacity="0.1" shape-rendering="crispEdges"/>
<path d="M497.073 -5.17766L547.672 5.35113L553.427 -47.1596L458.914 -69.1685L497.073 -5.17766Z" fill="white" fill-opacity="0.1" shape-rendering="crispEdges"/>
<path d="M651.731 31.1842L570.583 13.0013L570.61 -40.4671L640.317 -52.8435L663.207 -5.09207L651.731 31.1842Z" fill="white" fill-opacity="0.1" shape-rendering="crispEdges"/>
<path d="M565.799 31.1399L647.901 51.2329L618.263 127.601L547.611 122.791L565.799 31.1399Z" fill="white" fill-opacity="0.1" shape-rendering="crispEdges"/>
<path d="M755.79 57.0172L672.733 37.8785L725.269 -5.0601L755.79 57.0172Z" fill="white" fill-opacity="0.1" shape-rendering="crispEdges"/>
<path d="M713.771 72.2723L663.175 56.9695L640.221 132.386L702.275 146.74L713.771 72.2723Z" fill="white" fill-opacity="0.1" shape-rendering="crispEdges"/>
<path d="M57.8106 106.307L202.013 50.0483L224.883 138.856L57.8106 106.307Z" fill="white" fill-opacity="0.1" shape-rendering="crispEdges"/>
<path d="M260.205 149.377L241.134 99.7178L320.379 106.442L304.121 157.038L260.205 149.377Z" fill="white" fill-opacity="0.1" shape-rendering="crispEdges"/>
<path d="M320.353 157.046L338.52 106.452L369.073 106.467L342.311 160.877L320.353 157.046Z" fill="white" fill-opacity="0.1" shape-rendering="crispEdges"/>
<path d="M470.267 134.208L385.292 131.3L378.588 171.398L454.006 190.533L470.267 134.208Z" fill="white" fill-opacity="0.1" shape-rendering="crispEdges"/>
<path d="M490.313 143.767L521.819 147.602L506.516 199.153L472.148 190.542L490.313 143.767Z" fill="white" fill-opacity="0.1" shape-rendering="crispEdges"/>
<path d="M538.022 202.988L538.049 149.52L607.745 157.194L595.308 206.837L538.022 202.988Z" fill="white" fill-opacity="0.1" shape-rendering="crispEdges"/>
<path d="M640.208 157.211L697.489 171.562L686.965 211.658L625.861 206.853L640.208 157.211Z" fill="white" fill-opacity="0.1" shape-rendering="crispEdges"/>
<path d="M721.356 176.349L786.279 181.156L771.938 219.34L713.697 215.491L721.356 176.349Z" fill="white" fill-opacity="0.1" shape-rendering="crispEdges"/>
<path d="M807.285 181.167L897.986 188.852L902.739 229.911L795.808 219.353L807.285 181.167Z" fill="white" fill-opacity="0.1" shape-rendering="crispEdges"/>
<path d="M725.19 146.752L897.999 164.982L882.77 72.3593L734.772 80.8762L725.19 146.752Z" fill="white" fill-opacity="0.1" shape-rendering="crispEdges"/>
<path d="M782.524 57.031L739.612 -47.0636L743.431 -47.0617L822.676 -40.3373L812.185 -64.2125L863.741 -57.5024L873.283 -46.9948L878.961 51.3519L782.524 57.031Z" fill="white" fill-opacity="0.1" shape-rendering="crispEdges"/>
<path d="M965.852 42.8035L898.096 -24.0669L907.59 80.9653L965.852 42.8035Z" fill="white" fill-opacity="0.1" shape-rendering="crispEdges"/>
<path d="M923.809 105.798L988.756 63.8208L1066.06 138.335L974.372 185.072L923.809 105.798Z" fill="white" fill-opacity="0.1" shape-rendering="crispEdges"/>
<path d="M988.682 207.04L1083.23 153.62L1109.95 181.323L1043.09 238.576L1005.85 234.738L988.682 207.04Z" fill="white" fill-opacity="0.1" shape-rendering="crispEdges"/>
<path d="M981.985 234.725L923.784 153.538L928.519 229.924L981.985 234.725Z" fill="white" fill-opacity="0.1" shape-rendering="crispEdges"/>
<path d="M1077.46 243.368L1130.95 200.43L1185.35 248.197L1148.11 259.636L1077.46 243.368Z" fill="white" fill-opacity="0.1" shape-rendering="crispEdges"/>
<path d="M1050.82 51.4405L1237.02 20.983L1255.12 105.969L1209.24 207.153L1050.82 51.4405Z" fill="white" fill-opacity="0.1" shape-rendering="crispEdges"/>
<path d="M1025.05 31.3765L1103.36 13.2758L1083.35 -80.3043L918.172 -73.7059L1025.05 31.3765Z" fill="white" fill-opacity="0.1" shape-rendering="crispEdges"/>
<path d="M1277.14 -11.4593L1131.05 13.29L1110.09 -86.0193L1267.64 -100.26L1277.14 -11.4593Z" fill="white" fill-opacity="0.1" shape-rendering="crispEdges"/>
<path d="M1259.94 20.9948L1288.59 5.73285L1288.57 42.9698L1267.55 81.1507L1259.94 20.9948Z" fill="white" fill-opacity="0.1" shape-rendering="crispEdges"/>
<path d="M1307.69 -0.940858L1341.14 -63.94L1288.64 -80.1985L1307.69 -0.940858Z" fill="white" fill-opacity="0.1" shape-rendering="crispEdges"/>
<path d="M1321.02 63.992L1384.11 -63.9179L1430.9 -73.4417L1350.61 81.1935L1321.02 63.992Z" fill="white" fill-opacity="0.1" shape-rendering="crispEdges"/>
<path d="M1506.3 -30.4371L1534.96 -63.8401L1445.21 -63.8864L1506.3 -30.4371Z" fill="white" fill-opacity="0.1" shape-rendering="crispEdges"/>
<path d="M1458.55 -0.863137L1495.79 -11.3467L1439.48 -48.6126L1402.2 21.0681L1415.57 31.5777L1458.55 -0.863137Z" fill="white" fill-opacity="0.1" shape-rendering="crispEdges"/>
<path d="M1489 200.614L1384.01 121.312L1468.08 21.102L1495.77 21.1163L1540.68 -30.4194L1548.23 129.99L1489 200.614Z" fill="white" fill-opacity="0.1" shape-rendering="crispEdges"/>
<path d="M1406.96 56.3979L1386.92 43.0205L1363.97 109.844L1406.96 56.3979Z" fill="white" fill-opacity="0.1" shape-rendering="crispEdges"/>
<path d="M1310.51 84.0372L1337.24 101.237L1318.12 136.555L1293.31 117.446L1310.51 84.0372Z" fill="white" fill-opacity="0.1" shape-rendering="crispEdges"/>
<path d="M1248.38 224.36L1288.52 136.54L1310.48 151.828L1267.47 237.737L1248.38 224.36Z" fill="white" fill-opacity="0.1" shape-rendering="crispEdges"/>
<path d="M1288.46 258.753L1334.35 151.84L1375.39 176.686L1307.55 277.859L1288.46 258.753Z" fill="white" fill-opacity="0.1" shape-rendering="crispEdges"/>
<path d="M1324.73 292.19L1402.12 189.112L1593.94 357.254L1488.86 476.549L1324.73 292.19Z" fill="white" fill-opacity="0.1" shape-rendering="crispEdges"/>
<path d="M1495.67 224.487L1531.01 200.636L1548.16 271.299L1495.67 224.487Z" fill="white" fill-opacity="0.1" shape-rendering="crispEdges"/>
<path d="M1502.21 493.742L1537.56 459.388L1548.02 535.777L1502.21 493.742Z" fill="white" fill-opacity="0.1" shape-rendering="crispEdges"/>
<path d="M1480.23 535.742L1569 594.03L1540.27 758.24L1480.23 535.742Z" fill="white" fill-opacity="0.1" shape-rendering="crispEdges"/>
<path d="M1474.37 788.759L1562.22 784.985L1578.39 902.433L1480.04 908.111L1474.37 788.759Z" fill="white" fill-opacity="0.1" shape-rendering="crispEdges"/>
<path d="M1438.97 931.005L1554.5 931.065L1578.29 1086.71L1420.75 1097.13L1420.79 1001.65L1438.94 1001.66L1438.97 931.005Z" fill="white" fill-opacity="0.1" shape-rendering="crispEdges"/>
<path d="M1399.83 930.985L1386.37 1097.11L1268.92 1116.15L1272.83 947.151L1399.83 930.985Z" fill="white" fill-opacity="0.1" shape-rendering="crispEdges"/>
<path d="M1245.14 947.137L1233.59 1124.72L1136.2 1124.67L1155.39 942.317L1245.14 947.137Z" fill="white" fill-opacity="0.1" shape-rendering="crispEdges"/>
<path d="M1121.9 1089.34L1100.88 1120.84L1049.33 1096.94L1015.04 942.244L1133.43 948.989L1121.9 1089.34Z" fill="white" fill-opacity="0.1" shape-rendering="crispEdges"/>
<path d="M1281.48 837.354L1281.44 912.783L1005.5 920.279L998.92 720.724L1119.23 715.057L1124.89 844.912L1281.48 837.354Z" fill="white" fill-opacity="0.1" shape-rendering="crispEdges"/>
<path d="M1145.04 642.506L1281.58 637.803L1281.5 805.846L1140.18 812.457L1145.04 642.506Z" fill="white" fill-opacity="0.1" shape-rendering="crispEdges"/>
<path d="M987.512 626.194L1075.35 626.239L1113.53 654.902L1119.24 691.187L987.478 691.119L987.512 626.194Z" fill="white" fill-opacity="0.1" shape-rendering="crispEdges"/>
<path d="M969.383 601.36L1054.36 609.042L995.189 549.814L962.728 545.978L969.383 601.36Z" fill="white" fill-opacity="0.1" shape-rendering="crispEdges"/>
<path d="M957.988 480.095L1095.48 483.985L1095.46 525.041L962.741 521.154L957.988 480.095Z" fill="white" fill-opacity="0.1" shape-rendering="crispEdges"/>
<path d="M1022.88 542.19L1090.67 546.044L1090.64 601.422L1022.88 542.19Z" fill="white" fill-opacity="0.1" shape-rendering="crispEdges"/>
<path d="M945.641 354.056L1050.67 357.929L1090.71 461.067L951.318 455.267L945.641 354.056Z" fill="white" fill-opacity="0.1" shape-rendering="crispEdges"/>
<path d="M936.128 286.261L1050.7 292.048L1043.04 334.055L936.107 327.317L936.128 286.261Z" fill="white" fill-opacity="0.1" shape-rendering="crispEdges"/>
<path d="M1069.77 341.707L1069.8 292.058L1151.9 301.648L1151.88 346.524L1069.77 341.707Z" fill="white" fill-opacity="0.1" shape-rendering="crispEdges"/>
<path d="M1113.64 449.622L1077.4 357.943L1148.05 363.708L1174.74 444.879L1109.8 472.535L1113.64 449.622Z" fill="white" fill-opacity="0.1" shape-rendering="crispEdges"/>
<path d="M1224.48 273.042L1248.35 277.828L1243.54 341.797L1174.79 354.174L1181.51 292.116L1224.48 273.042Z" fill="white" fill-opacity="0.1" shape-rendering="crispEdges"/>
<path d="M1224.43 372.341L1243.53 363.757L1243.51 411.497L1200.53 434.39L1174.78 372.315L1224.43 372.341Z" fill="white" fill-opacity="0.1" shape-rendering="crispEdges"/>
<path d="M1209.11 455.4L1243.49 439.186L1232.95 515.564L1209.11 455.4Z" fill="white" fill-opacity="0.1" shape-rendering="crispEdges"/>
<path d="M1113.61 497.361L1185.24 461.116L1213.85 525.102L1113.6 525.05L1113.61 497.361Z" fill="white" fill-opacity="0.1" shape-rendering="crispEdges"/>
<path d="M1119.31 546.059L1232.93 555.665L1228.13 614.86L1113.55 618.62L1119.31 546.059Z" fill="white" fill-opacity="0.1" shape-rendering="crispEdges"/>
<path d="M1267.32 525.13L1435.39 479.386L1272.21 301.71L1267.32 525.13Z" fill="white" fill-opacity="0.1" shape-rendering="crispEdges"/>
<path d="M1281.63 550.916L1430.6 503.253L1430.59 525.214L1336.95 656.927L1303.53 656.91L1307.37 614.901L1275.87 610.111L1281.63 550.916Z" fill="white" fill-opacity="0.1" shape-rendering="crispEdges"/>
<path d="M1358.91 666.486L1449.68 535.726L1488.75 678.965L1358.91 666.486Z" fill="white" fill-opacity="0.1" shape-rendering="crispEdges"/>
<path d="M1311.15 690.331L1488.74 701.88L1502.08 758.22L1435.24 758.186L1444.71 908.093L1307.23 902.294L1311.15 690.331Z" fill="white" fill-opacity="0.1" shape-rendering="crispEdges"/>
<path d="M-91.1765 182.614L-9.0683 190.294L-54.9648 319.168L-109.388 319.14L-91.1765 182.614Z" fill="white" fill-opacity="0.1" shape-rendering="crispEdges"/>
<path d="M-54.9756 340.173L-109.399 340.145L-109.434 407.935L-91.2926 407.945L-54.9756 340.173Z" fill="white" fill-opacity="0.1" shape-rendering="crispEdges"/>
<path d="M52.0557 156.908L338.471 201.931L270.588 381.397L116.849 414.736L-36.8778 424.204L52.0557 156.908Z" fill="white" fill-opacity="0.1" shape-rendering="crispEdges"/>
<path d="M179.86 424.316L279.167 408.136L270.555 444.413L240.91 534.149L127.29 534.09L127.32 476.803L170.285 476.825L179.86 424.316Z" fill="white" fill-opacity="0.1" shape-rendering="crispEdges"/>
<path d="M55.7288 440.484L153.126 424.302L156.926 461.541L109.184 466.291L106.282 539.808L60.4496 543.604L55.7288 440.484Z" fill="white" fill-opacity="0.1" shape-rendering="crispEdges"/>
<path d="M-63.6263 451.88L32.8138 440.472L39.4441 543.593L-84.6828 551.167L-63.6263 451.88Z" fill="white" fill-opacity="0.1" shape-rendering="crispEdges"/>
<path d="M-59.8671 568.366L240.897 559.928L179.702 730.805L127.191 726.004L69.8982 736.477L65.1975 594.21L-43.645 586.516L-59.8671 568.366Z" fill="white" fill-opacity="0.1" shape-rendering="crispEdges"/>
<path d="M-25.5147 607.531L42.2726 613.294L46.0358 722.143L-19.8494 730.702L-25.5147 607.531Z" fill="white" fill-opacity="0.1" shape-rendering="crispEdges"/>
<path d="M-43.6588 613.25L-82.8062 615.139L-91.4618 736.394L-37.0372 733.557L-43.6588 613.25Z" fill="white" fill-opacity="0.1" shape-rendering="crispEdges"/>
<path d="M124.318 744.143L203.564 747.048L213.105 760.42L84.1832 808.094L84.2108 754.625L124.318 744.143Z" fill="white" fill-opacity="0.1" shape-rendering="crispEdges"/>
<path d="M-12.2263 760.304L60.3429 750.794L65.0844 813.813L-12.2667 838.597L-12.2263 760.304Z" fill="white" fill-opacity="0.1" shape-rendering="crispEdges"/>
<path d="M-80.9724 762.179L-30.3673 760.295L-30.4146 851.955L-81.0206 855.748L-80.9724 762.179Z" fill="white" fill-opacity="0.1" shape-rendering="crispEdges"/>
<path d="M303.999 394.781L355.634 246.815L342.069 630.635L303.999 394.781Z" fill="white" fill-opacity="0.1" shape-rendering="crispEdges"/>
<path d="M270.515 523.661L293.47 444.425L303.932 523.678L270.515 523.661Z" fill="white" fill-opacity="0.1" shape-rendering="crispEdges"/>
<path d="M264.772 549.438L309.651 543.732L306.771 573.329L281.946 573.316L275.245 607.686L245.647 607.67L264.772 549.438Z" fill="white" fill-opacity="0.1" shape-rendering="crispEdges"/>
<path d="M293.396 588.599L309.628 588.607L316.301 607.707L293.386 607.695L293.396 588.599Z" fill="white" fill-opacity="0.1" shape-rendering="crispEdges"/>
<path d="M245.635 630.585L322.975 626.806L342.028 710.838L240.799 749.932L213.125 722.229L245.635 630.585Z" fill="white" fill-opacity="0.1" shape-rendering="crispEdges"/>
<path d="M374.498 696.533L553.052 682.303L547.456 424.505L436.734 358.568L378.491 358.538L374.498 696.533Z" fill="white" fill-opacity="0.1" shape-rendering="crispEdges"/>
<path d="M607.69 264.131L917.034 282.432L917.021 308.211L594.31 288.949L607.69 264.131Z" fill="white" fill-opacity="0.1" shape-rendering="crispEdges"/>
<path d="M537.993 259.321L557.089 259.331L542.747 297.515L374.74 225.819L378.569 206.725L537.993 259.321Z" fill="white" fill-opacity="0.1" shape-rendering="crispEdges"/>
<path d="M411.005 259.256L547.506 326.162L547.49 358.625L490.196 371.007L442.473 337.565L385.186 337.536L411.005 259.256Z" fill="white" fill-opacity="0.1" shape-rendering="crispEdges"/>
<path d="M506.422 381.519L547.481 375.811L542.694 401.588L506.422 381.519Z" fill="white" fill-opacity="0.1" shape-rendering="crispEdges"/>
<path d="M594.283 342.417L570.421 326.173L565.614 390.142L704.062 384.485L705.988 352.978L594.283 342.417Z" fill="white" fill-opacity="0.1" shape-rendering="crispEdges"/>
<path d="M725.081 358.716L761.363 358.735L755.623 381.647L725.069 381.631L725.081 358.716Z" fill="white" fill-opacity="0.1" shape-rendering="crispEdges"/>
<path d="M788.098 358.749L874.982 362.613L786.179 376.889L788.098 358.749Z" fill="white" fill-opacity="0.1" shape-rendering="crispEdges"/>
<path d="M858.74 381.7L880.699 384.576L884.481 457.142L871.114 457.135L858.74 381.7Z" fill="white" fill-opacity="0.1" shape-rendering="crispEdges"/>
<path d="M788.079 394.076L836.779 384.553L850.105 463.808L786.135 460.911L788.079 394.076Z" fill="white" fill-opacity="0.1" shape-rendering="crispEdges"/>
<path d="M783.263 477.141L889.242 482.924L901.633 523.032L783.242 516.287L783.263 477.141Z" fill="white" fill-opacity="0.1" shape-rendering="crispEdges"/>
<path d="M788.006 536.34L901.621 546.901L896.832 576.498L906.368 599.418L783.201 596.49L788.006 536.34Z" fill="white" fill-opacity="0.1" shape-rendering="crispEdges"/>
<path d="M874.85 617.542L909.223 617.56L916.842 655.756L871.012 655.732L874.85 617.542Z" fill="white" fill-opacity="0.1" shape-rendering="crispEdges"/>
<path d="M787.962 622.272L850.027 614.665L850.005 658.586L786.034 658.553L787.962 622.272Z" fill="white" fill-opacity="0.1" shape-rendering="crispEdges"/>
<path d="M871.002 673.873L921.606 673.899L931.146 689.181L870.994 689.15L871.002 673.873Z" fill="white" fill-opacity="0.1" shape-rendering="crispEdges"/>
<path d="M784.117 671.919L858.59 673.867L855.718 689.142L783.155 685.285L784.117 671.919Z" fill="white" fill-opacity="0.1" shape-rendering="crispEdges"/>
<path d="M570.371 424.517L761.341 401.701L746.875 682.402L575.967 682.314L570.371 424.517Z" fill="white" fill-opacity="0.1" shape-rendering="crispEdges"/>
<path d="M784.085 734.935L962.631 735.027L969.275 812.369L870.931 812.318L865.158 897.292L783.054 881.973L784.085 734.935Z" fill="white" fill-opacity="0.1" shape-rendering="crispEdges"/>
<path d="M896.701 829.518L969.263 834.329L979.698 966.096L889.016 920.219L896.701 829.518Z" fill="white" fill-opacity="0.1" shape-rendering="crispEdges"/>
<path d="M783.998 902.024L921.459 960.337L785.881 954.539L783.998 902.024Z" fill="white" fill-opacity="0.1" shape-rendering="crispEdges"/>
<path d="M974.916 982.325L792.554 975.548L792.536 1010.87L979.67 1021.47L974.916 982.325Z" fill="white" fill-opacity="0.1" shape-rendering="crispEdges"/>
<path d="M998.752 1048.22L785.838 1037.61L782.974 1037.6L773.388 1111.12L1014.95 1120.79L998.752 1048.22Z" fill="white" fill-opacity="0.1" shape-rendering="crispEdges"/>
<path d="M582.627 728.148L755.437 741.604L746.772 881.954L416.424 860.779L404.942 908.512L384.886 919.96L392.61 751.92L582.627 728.148Z" fill="white" fill-opacity="0.1" shape-rendering="crispEdges"/>
<path d="M436.461 888.478L755.351 908.693L761.06 946.888L429.758 925.711L436.461 888.478Z" fill="white" fill-opacity="0.1" shape-rendering="crispEdges"/>
<path d="M556.731 954.421L761.046 975.531L732.332 1111.1L556.661 1089.05L556.731 954.421Z" fill="white" fill-opacity="0.1" shape-rendering="crispEdges"/>
<path d="M381.049 954.33L527.132 954.405L530.874 1103.36L381.035 980.11L381.049 954.33Z" fill="white" fill-opacity="0.1" shape-rendering="crispEdges"/>
<path d="M491.732 1095.7L381.024 1003.02L374.284 1111.87L491.732 1095.7Z" fill="white" fill-opacity="0.1" shape-rendering="crispEdges"/>
<path d="M-12.368 1035.28L-154.621 1014.21L-143.201 1085.82L-12.4025 1102.12L-12.368 1035.28Z" fill="white" fill-opacity="0.1" shape-rendering="crispEdges"/>
<path d="M10.5505 1028.61L69.7477 1028.64L64.9358 1102.16L10.5101 1106.91L10.5505 1028.61Z" fill="white" fill-opacity="0.1" shape-rendering="crispEdges"/>
<path d="M-4.65531 891.115L69.8333 862.51L69.759 1006.68L-0.895742 1006.65L-4.65531 891.115Z" fill="white" fill-opacity="0.1" shape-rendering="crispEdges"/>
<path d="M-91.5415 891.07L-25.6647 898.743L-19.9916 1006.64L-98.2886 1014.24L-91.5415 891.07Z" fill="white" fill-opacity="0.1" shape-rendering="crispEdges"/>
<path d="M92.7538 852.019L213.08 808.16L221.645 862.588L92.7272 903.577L92.7538 852.019Z" fill="white" fill-opacity="0.1" shape-rendering="crispEdges"/>
<path d="M106.083 924.59L179.616 898.848L179.515 1094.58L92.6288 1094.54L106.083 924.59Z" fill="white" fill-opacity="0.1" shape-rendering="crispEdges"/>
<path d="M203.378 1107.01L198.695 931.321L231.158 931.338L240.622 1094.61L203.378 1107.01Z" fill="white" fill-opacity="0.1" shape-rendering="crispEdges"/>
<path d="M236.954 800.534L347.734 754.761L335.18 1028.78L258.797 1028.74L236.954 800.534Z" fill="white" fill-opacity="0.1" shape-rendering="crispEdges"/>
<path d="M258.783 1055.48L264.485 1107.04L335.133 1119.49L335.166 1055.51L258.783 1055.48Z" fill="white" fill-opacity="0.1" shape-rendering="crispEdges"/>
<path d="M-168.509 171.116L265.062 -11.9808L237.405 -74.0566L-142.597 -86.6647L-168.509 171.116Z" fill="white" fill-opacity="0.1" shape-rendering="crispEdges"/>
<path d="M10.9922 171.209L32.9889 100.565L-142.729 171.13L10.9922 171.209Z" fill="white" fill-opacity="0.1" shape-rendering="crispEdges"/>
</g>
<g filter="url(#filter1_f_68_2)">
<path d="M1068 -5.22577C1068 422.498 815.008 1249.07 387.227 1249.07C-40.5531 1249.07 73.8061 888.269 73.8061 460.545C73.8061 32.822 -300.826 -248.271 126.954 -248.271C554.735 -248.271 1068 -432.949 1068 -5.22577Z" fill="#026EE6"/>
</g>
<g style="mix-blend-mode:plus-darker" filter="url(#filter2_f_68_2)">
<ellipse cx="813" cy="694.807" rx="982.974" ry="982.202" transform="rotate(145.135 813 694.807)" fill="url(#paint1_radial_68_2)" fill-opacity="0.7"/>
</g>
</g>
<defs>
<filter id="filter0_df_68_2" x="-172.509" y="-104.26" width="1770.45" height="1236.98" filterUnits="userSpaceOnUse" color-interpolation-filters="sRGB">
<feFlood flood-opacity="0" result="BackgroundImageFix"/>
<feColorMatrix in="SourceAlpha" type="matrix" values="0 0 0 0 0 0 0 0 0 0 0 0 0 0 0 0 0 0 127 0" result="hardAlpha"/>
<feOffset dy="4"/>
<feGaussianBlur stdDeviation="2"/>
<feComposite in2="hardAlpha" operator="out"/>
<feColorMatrix type="matrix" values="0 0 0 0 0.139491 0 0 0 0 0.355546 0 0 0 0 0.774948 0 0 0 0.32 0"/>
<feBlend mode="normal" in2="BackgroundImageFix" result="effect1_dropShadow_68_2"/>
<feBlend mode="normal" in="SourceGraphic" in2="effect1_dropShadow_68_2" result="shape"/>
<feGaussianBlur stdDeviation="2" result="effect2_foregroundBlur_68_2"/>
</filter>
<filter id="filter1_f_68_2" x="-878" y="-1087.93" width="2746" height="3137" filterUnits="userSpaceOnUse" color-interpolation-filters="sRGB">
<feFlood flood-opacity="0" result="BackgroundImageFix"/>
<feBlend mode="normal" in="SourceGraphic" in2="BackgroundImageFix" result="shape"/>
<feGaussianBlur stdDeviation="400" result="effect1_foregroundBlur_68_2"/>
</filter>
<filter id="filter2_f_68_2" x="-289.808" y="-407.733" width="2205.62" height="2205.08" filterUnits="userSpaceOnUse" color-interpolation-filters="sRGB">
<feFlood flood-opacity="0" result="BackgroundImageFix"/>
<feBlend mode="normal" in="SourceGraphic" in2="BackgroundImageFix" result="shape"/>
<feGaussianBlur stdDeviation="60" result="effect1_foregroundBlur_68_2"/>
</filter>
<linearGradient id="paint0_linear_68_2" x1="1422.5" y1="17.5" x2="720" y2="1024" gradientUnits="userSpaceOnUse">
<stop stop-color="#5B9CE6"/>
<stop offset="1" stop-color="white" stop-opacity="0.86"/>
</linearGradient>
<radialGradient id="paint1_radial_68_2" cx="0" cy="0" r="1" gradientUnits="userSpaceOnUse" gradientTransform="translate(818.792 840.747) rotate(93.1882) scale(881.64 882.333)">
<stop stop-color="#0061CF"/>
<stop offset="1" stop-color="#D3E8F2"/>
</radialGradient>
<clipPath id="clip0_68_2">
<rect width="1440" height="1024" fill="white"/>
</clipPath>
</defs>
</svg>
