<svg width="1195" height="443" viewBox="0 0 1195 443" fill="none" xmlns="http://www.w3.org/2000/svg">
<g filter="url(#filter0_d_112_78)">
<mask id="path-1-outside-1_112_78" maskUnits="userSpaceOnUse" x="-6.19123" y="-1.487" width="1187.66" height="438.866" fill="black">
<rect fill="white" x="-6.19123" y="-1.487" width="1187.66" height="438.866"/>
<path d="M55.3181 33.5359L52.3375 123.086L34.4274 122.49L37.408 32.9398L55.3181 33.5359ZM92.0755 124.409L94.5068 51.3614L62.7803 50.3054L63.3296 33.8025L144.437 36.5021L143.887 53.0049L112.417 51.9575L109.986 125.005L92.0755 124.409ZM149.747 126.328L152.727 36.778L226.67 39.2391L226.121 55.742L170.088 53.877L169.424 73.834L223.41 75.6308L222.861 92.1337L168.874 90.3368L168.21 110.294L224.243 112.159L223.69 128.79L149.747 126.328ZM299.559 131.315L280.598 104.557L256.292 103.748L255.423 129.846L237.513 129.25L240.494 39.6992L286.548 41.2321C305.737 41.8708 321.179 55.0638 320.545 74.1252C320.127 86.6623 311.591 96.88 300.286 101.755L321.818 132.056L299.559 131.315ZM302.635 73.5291C302.928 64.702 295.977 58.0671 285.999 57.735L257.854 56.7982L256.849 86.9895L284.994 87.9263C294.844 88.2541 302.354 81.9724 302.635 73.5291ZM354.852 96.5269L355.397 80.152L461.707 83.6903L461.162 100.065L354.852 96.5269ZM503.233 48.4442L576.153 50.8713L575.633 66.4786L520.624 64.6477L520.062 81.5343L550.637 82.552C567.907 83.1268 583.114 95.6716 582.569 112.047C581.994 129.317 566.776 140.209 548.738 139.608L500.252 137.995L503.233 48.4442ZM564.659 111.45C564.889 104.542 558.808 98.7048 550.109 98.4152L519.534 97.3976L518.686 122.855L549.261 123.873C558.088 124.167 564.412 118.87 564.659 111.45ZM588.912 96.2488C589.811 69.2558 611.451 50.1251 639.595 51.0618C667.612 51.9943 687.966 71.4982 687.034 99.5147C686.114 127.147 664.504 145.383 636.487 144.45C608.471 143.518 588.027 122.858 588.912 96.2488ZM606.822 96.845C606.247 114.115 618.892 126.703 637.058 127.308C655.607 127.925 668.549 116.189 669.124 98.9186C669.711 81.2644 657.575 68.8217 639.025 68.2043C620.731 67.5954 607.41 79.1907 606.822 96.845ZM703.507 110.309L710.587 55.3458L785.554 57.8409L782.573 147.391L764.663 146.795L767.094 73.7477L726.541 72.3979L721.588 109.63C717.973 137.429 709.718 146.888 689.121 146.202L689.666 129.827C698.109 130.108 701.486 124.841 703.507 110.309ZM799.139 58.2931L817.049 58.8892L816.155 85.7544L844.811 86.7082C863.873 87.3426 879.135 102.066 878.565 119.209C877.96 137.375 862.682 150.058 842.725 149.393L796.159 147.844L799.139 58.2931ZM860.655 118.613C860.944 109.914 853.878 102.891 844.283 102.571L815.627 101.618L814.592 132.704L843.249 133.658C853.099 133.986 860.357 127.568 860.655 118.613ZM887.298 150.877L890.279 61.3266L908.189 61.9227L905.762 134.842L948.49 136.265L950.917 63.3449L968.827 63.941L966.4 136.861L1009.13 138.283L1011.56 65.3632L1029.47 65.9593L1026.49 155.51L887.298 150.877ZM1040.03 155.96L1043.01 66.4101L1116.95 68.8712L1116.4 85.374L1060.37 83.509L1059.71 103.466L1113.69 105.263L1113.14 121.766L1059.16 119.969L1058.49 139.926L1114.53 141.791L1113.97 158.422L1040.03 155.96ZM1124.24 177.078L1128.04 143.905L1146.71 144.527L1139.21 177.576L1124.24 177.078ZM198.436 187.902L199.352 160.397L217.262 160.994L214.281 250.544L196.371 249.948L197.657 211.313C191.227 219.808 181.573 225.122 170.443 224.751C149.59 224.057 135.453 206.297 136.177 184.549L137.05 158.324L154.96 158.92L154.087 185.145C153.691 197.043 162.421 207.963 175.726 208.406C188.902 208.845 198.062 199.16 198.436 187.902ZM228.207 251.007L231.188 161.457L305.131 163.918L304.582 180.421L248.549 178.556L247.885 198.513L301.871 200.31L301.321 216.813L247.335 215.016L246.671 234.973L302.704 236.838L302.151 253.469L228.207 251.007ZM335.804 196.829L333.884 254.525L315.974 253.929L318.954 164.378L341.726 165.136L368.368 234.285L399.422 167.057L422.193 167.814L419.213 257.365L401.303 256.769L403.214 199.329L376.612 255.947L358.574 255.347L335.804 196.829ZM465.503 169.256L553.007 172.168L550.026 261.719L532.116 261.123L534.547 188.075L482.864 186.355L480.433 259.403L462.523 258.806L465.503 169.256ZM563.782 262.177L566.762 172.626L612.561 174.151C631.75 174.789 647.448 187.991 646.813 207.052C646.213 225.09 628.743 238.212 610.449 237.604L582.56 236.675L581.692 262.773L563.782 262.177ZM628.903 206.456C629.197 197.629 621.99 190.986 612.012 190.653L584.123 189.725L583.118 219.917L611.007 220.845C620.857 221.173 628.622 214.899 628.903 206.456ZM652.441 220.431C653.34 193.438 674.98 174.307 703.125 175.244C731.141 176.176 751.496 195.68 750.563 223.697C749.643 251.329 728.033 269.565 700.016 268.632C672 267.7 651.556 247.04 652.441 220.431ZM670.352 221.027C669.777 238.297 682.421 250.885 700.587 251.49C719.137 252.107 732.078 240.371 732.653 223.101C733.241 205.446 721.104 193.004 702.554 192.386C684.26 191.778 670.939 203.373 670.352 221.027ZM774.359 224.489C773.784 241.759 786.428 254.347 804.594 254.951C817.515 255.381 827.822 249.705 833.135 240.149L852.068 240.779C845.899 260.681 827.051 272.86 804.024 272.094C776.007 271.161 755.563 250.502 756.449 223.893C757.347 196.9 778.988 177.769 807.132 178.706C830.159 179.472 848.027 192.874 852.988 213.146L834.054 212.516C829.521 202.504 819.61 196.282 806.561 195.848C788.268 195.239 774.947 206.835 774.359 224.489ZM887.285 272.944L889.716 199.897L857.989 198.841L858.539 182.338L939.646 185.037L939.096 201.54L907.626 200.493L905.195 273.54L887.285 272.944ZM941.102 230.039C942 203.046 963.64 183.915 991.785 184.852C1019.8 185.784 1040.16 205.288 1039.22 233.305C1038.3 260.937 1016.69 279.172 988.676 278.24C960.66 277.307 940.216 256.648 941.102 230.039ZM959.012 230.635C958.437 247.905 971.081 260.493 989.247 261.097C1007.8 261.715 1020.74 249.979 1021.31 232.708C1021.9 215.054 1009.76 202.612 991.214 201.994C972.92 201.385 959.599 212.981 959.012 230.635ZM376.087 377.997L378.518 304.949L346.792 303.894L347.341 287.391L428.448 290.09L427.899 306.593L396.428 305.546L393.997 378.593L376.087 377.997ZM415.278 379.301L463.162 291.246L483.119 291.91L525.297 382.963L505.34 382.299L495.425 360.837L446.428 359.207L435.107 379.961L415.278 379.301ZM455.16 343.104L487.654 344.186L472.48 311.407L455.16 343.104ZM547.898 347.087L546.681 383.675L528.77 383.079L531.751 293.529L549.661 294.125L548.443 330.712L558.678 331.053L594.82 295.628L619.127 296.437L575.164 339.798L619.472 386.098L594.526 385.268L557.749 347.415L547.898 347.087ZM635.215 341.925C634.64 359.196 647.285 371.783 665.451 372.388C678.372 372.818 688.678 367.142 693.991 357.585L712.924 358.215C706.755 378.117 687.907 390.297 664.88 389.53C636.864 388.598 616.42 367.938 617.305 341.329C618.204 314.336 639.844 295.205 667.988 296.142C691.016 296.908 708.884 310.31 713.844 330.582L694.911 329.952C690.377 319.94 680.467 313.719 667.418 313.284C649.124 312.676 635.803 324.271 635.215 341.925ZM809.931 392.437L792.021 391.841L794.009 332.098L736.499 389.993L722.043 389.512L725.024 299.961L742.934 300.558L740.958 359.917L798.583 302.41L812.911 302.887L809.931 392.437Z"/>
</mask>
<path d="M55.3181 33.5359L52.3375 123.086L34.4274 122.49L37.408 32.9398L55.3181 33.5359ZM92.0755 124.409L94.5068 51.3614L62.7803 50.3054L63.3296 33.8025L144.437 36.5021L143.887 53.0049L112.417 51.9575L109.986 125.005L92.0755 124.409ZM149.747 126.328L152.727 36.778L226.67 39.2391L226.121 55.742L170.088 53.877L169.424 73.834L223.41 75.6308L222.861 92.1337L168.874 90.3368L168.21 110.294L224.243 112.159L223.69 128.79L149.747 126.328ZM299.559 131.315L280.598 104.557L256.292 103.748L255.423 129.846L237.513 129.25L240.494 39.6992L286.548 41.2321C305.737 41.8708 321.179 55.0638 320.545 74.1252C320.127 86.6623 311.591 96.88 300.286 101.755L321.818 132.056L299.559 131.315ZM302.635 73.5291C302.928 64.702 295.977 58.0671 285.999 57.735L257.854 56.7982L256.849 86.9895L284.994 87.9263C294.844 88.2541 302.354 81.9724 302.635 73.5291ZM354.852 96.5269L355.397 80.152L461.707 83.6903L461.162 100.065L354.852 96.5269ZM503.233 48.4442L576.153 50.8713L575.633 66.4786L520.624 64.6477L520.062 81.5343L550.637 82.552C567.907 83.1268 583.114 95.6716 582.569 112.047C581.994 129.317 566.776 140.209 548.738 139.608L500.252 137.995L503.233 48.4442ZM564.659 111.45C564.889 104.542 558.808 98.7048 550.109 98.4152L519.534 97.3976L518.686 122.855L549.261 123.873C558.088 124.167 564.412 118.87 564.659 111.45ZM588.912 96.2488C589.811 69.2558 611.451 50.1251 639.595 51.0618C667.612 51.9943 687.966 71.4982 687.034 99.5147C686.114 127.147 664.504 145.383 636.487 144.45C608.471 143.518 588.027 122.858 588.912 96.2488ZM606.822 96.845C606.247 114.115 618.892 126.703 637.058 127.308C655.607 127.925 668.549 116.189 669.124 98.9186C669.711 81.2644 657.575 68.8217 639.025 68.2043C620.731 67.5954 607.41 79.1907 606.822 96.845ZM703.507 110.309L710.587 55.3458L785.554 57.8409L782.573 147.391L764.663 146.795L767.094 73.7477L726.541 72.3979L721.588 109.63C717.973 137.429 709.718 146.888 689.121 146.202L689.666 129.827C698.109 130.108 701.486 124.841 703.507 110.309ZM799.139 58.2931L817.049 58.8892L816.155 85.7544L844.811 86.7082C863.873 87.3426 879.135 102.066 878.565 119.209C877.96 137.375 862.682 150.058 842.725 149.393L796.159 147.844L799.139 58.2931ZM860.655 118.613C860.944 109.914 853.878 102.891 844.283 102.571L815.627 101.618L814.592 132.704L843.249 133.658C853.099 133.986 860.357 127.568 860.655 118.613ZM887.298 150.877L890.279 61.3266L908.189 61.9227L905.762 134.842L948.49 136.265L950.917 63.3449L968.827 63.941L966.4 136.861L1009.13 138.283L1011.56 65.3632L1029.47 65.9593L1026.49 155.51L887.298 150.877ZM1040.03 155.96L1043.01 66.4101L1116.95 68.8712L1116.4 85.374L1060.37 83.509L1059.71 103.466L1113.69 105.263L1113.14 121.766L1059.16 119.969L1058.49 139.926L1114.53 141.791L1113.97 158.422L1040.03 155.96ZM1124.24 177.078L1128.04 143.905L1146.71 144.527L1139.21 177.576L1124.24 177.078ZM198.436 187.902L199.352 160.397L217.262 160.994L214.281 250.544L196.371 249.948L197.657 211.313C191.227 219.808 181.573 225.122 170.443 224.751C149.59 224.057 135.453 206.297 136.177 184.549L137.05 158.324L154.96 158.92L154.087 185.145C153.691 197.043 162.421 207.963 175.726 208.406C188.902 208.845 198.062 199.16 198.436 187.902ZM228.207 251.007L231.188 161.457L305.131 163.918L304.582 180.421L248.549 178.556L247.885 198.513L301.871 200.31L301.321 216.813L247.335 215.016L246.671 234.973L302.704 236.838L302.151 253.469L228.207 251.007ZM335.804 196.829L333.884 254.525L315.974 253.929L318.954 164.378L341.726 165.136L368.368 234.285L399.422 167.057L422.193 167.814L419.213 257.365L401.303 256.769L403.214 199.329L376.612 255.947L358.574 255.347L335.804 196.829ZM465.503 169.256L553.007 172.168L550.026 261.719L532.116 261.123L534.547 188.075L482.864 186.355L480.433 259.403L462.523 258.806L465.503 169.256ZM563.782 262.177L566.762 172.626L612.561 174.151C631.75 174.789 647.448 187.991 646.813 207.052C646.213 225.09 628.743 238.212 610.449 237.604L582.56 236.675L581.692 262.773L563.782 262.177ZM628.903 206.456C629.197 197.629 621.99 190.986 612.012 190.653L584.123 189.725L583.118 219.917L611.007 220.845C620.857 221.173 628.622 214.899 628.903 206.456ZM652.441 220.431C653.34 193.438 674.98 174.307 703.125 175.244C731.141 176.176 751.496 195.68 750.563 223.697C749.643 251.329 728.033 269.565 700.016 268.632C672 267.7 651.556 247.04 652.441 220.431ZM670.352 221.027C669.777 238.297 682.421 250.885 700.587 251.49C719.137 252.107 732.078 240.371 732.653 223.101C733.241 205.446 721.104 193.004 702.554 192.386C684.26 191.778 670.939 203.373 670.352 221.027ZM774.359 224.489C773.784 241.759 786.428 254.347 804.594 254.951C817.515 255.381 827.822 249.705 833.135 240.149L852.068 240.779C845.899 260.681 827.051 272.86 804.024 272.094C776.007 271.161 755.563 250.502 756.449 223.893C757.347 196.9 778.988 177.769 807.132 178.706C830.159 179.472 848.027 192.874 852.988 213.146L834.054 212.516C829.521 202.504 819.61 196.282 806.561 195.848C788.268 195.239 774.947 206.835 774.359 224.489ZM887.285 272.944L889.716 199.897L857.989 198.841L858.539 182.338L939.646 185.037L939.096 201.54L907.626 200.493L905.195 273.54L887.285 272.944ZM941.102 230.039C942 203.046 963.64 183.915 991.785 184.852C1019.8 185.784 1040.16 205.288 1039.22 233.305C1038.3 260.937 1016.69 279.172 988.676 278.24C960.66 277.307 940.216 256.648 941.102 230.039ZM959.012 230.635C958.437 247.905 971.081 260.493 989.247 261.097C1007.8 261.715 1020.74 249.979 1021.31 232.708C1021.9 215.054 1009.76 202.612 991.214 201.994C972.92 201.385 959.599 212.981 959.012 230.635ZM376.087 377.997L378.518 304.949L346.792 303.894L347.341 287.391L428.448 290.09L427.899 306.593L396.428 305.546L393.997 378.593L376.087 377.997ZM415.278 379.301L463.162 291.246L483.119 291.91L525.297 382.963L505.34 382.299L495.425 360.837L446.428 359.207L435.107 379.961L415.278 379.301ZM455.16 343.104L487.654 344.186L472.48 311.407L455.16 343.104ZM547.898 347.087L546.681 383.675L528.77 383.079L531.751 293.529L549.661 294.125L548.443 330.712L558.678 331.053L594.82 295.628L619.127 296.437L575.164 339.798L619.472 386.098L594.526 385.268L557.749 347.415L547.898 347.087ZM635.215 341.925C634.64 359.196 647.285 371.783 665.451 372.388C678.372 372.818 688.678 367.142 693.991 357.585L712.924 358.215C706.755 378.117 687.907 390.297 664.88 389.53C636.864 388.598 616.42 367.938 617.305 341.329C618.204 314.336 639.844 295.205 667.988 296.142C691.016 296.908 708.884 310.31 713.844 330.582L694.911 329.952C690.377 319.94 680.467 313.719 667.418 313.284C649.124 312.676 635.803 324.271 635.215 341.925ZM809.931 392.437L792.021 391.841L794.009 332.098L736.499 389.993L722.043 389.512L725.024 299.961L742.934 300.558L740.958 359.917L798.583 302.41L812.911 302.887L809.931 392.437Z" fill="#245BC6"/>
<path d="M55.3181 33.5359L86.3009 34.5671C86.8704 17.4557 73.4606 3.12256 56.3493 2.55303L55.3181 33.5359ZM52.3375 123.086L51.3062 154.069C68.4176 154.639 82.7508 141.229 83.3203 124.118L52.3375 123.086ZM34.4274 122.49L3.44455 121.459C2.87502 138.57 16.2848 152.903 33.3962 153.473L34.4274 122.49ZM37.408 32.9398L38.4392 1.95691C21.3279 1.38738 6.99467 14.7972 6.42514 31.9085L37.408 32.9398ZM55.3181 33.5359L24.3352 32.5046L21.3546 122.055L52.3375 123.086L83.3203 124.118L86.3009 34.5671L55.3181 33.5359ZM52.3375 123.086L53.3687 92.1034L35.4586 91.5073L34.4274 122.49L33.3962 153.473L51.3062 154.069L52.3375 123.086ZM34.4274 122.49L65.4102 123.521L68.3908 33.971L37.408 32.9398L6.42514 31.9085L3.44455 121.459L34.4274 122.49ZM37.408 32.9398L36.3767 63.9226L54.2868 64.5187L55.3181 33.5359L56.3493 2.55303L38.4392 1.95691L37.408 32.9398ZM92.0755 124.409L61.0926 123.378C60.5231 140.489 73.9329 154.822 91.0442 155.392L92.0755 124.409ZM94.5068 51.3614L125.49 52.3926C126.059 35.2812 112.649 20.9481 95.538 20.3785L94.5068 51.3614ZM62.7803 50.3054L31.7975 49.2742C31.228 66.3855 44.6378 80.7187 61.7491 81.2882L62.7803 50.3054ZM63.3296 33.8025L64.3609 2.81968C47.2495 2.25015 32.9163 15.6599 32.3468 32.7713L63.3296 33.8025ZM144.437 36.5021L175.42 37.5333C175.989 20.422 162.579 6.08877 145.468 5.51924L144.437 36.5021ZM143.887 53.0049L142.856 83.9878C159.968 84.5573 174.301 71.1475 174.87 54.0362L143.887 53.0049ZM112.417 51.9575L113.448 20.9746C96.3367 20.4051 82.0036 33.8149 81.434 50.9263L112.417 51.9575ZM109.986 125.005L108.954 155.988C126.066 156.557 140.399 143.148 140.968 126.036L109.986 125.005ZM92.0755 124.409L123.058 125.44L125.49 52.3926L94.5068 51.3614L63.5239 50.3301L61.0926 123.378L92.0755 124.409ZM94.5068 51.3614L95.538 20.3785L63.8116 19.3225L62.7803 50.3054L61.7491 81.2882L93.4756 82.3442L94.5068 51.3614ZM62.7803 50.3054L93.7632 51.3366L94.3125 34.8338L63.3296 33.8025L32.3468 32.7713L31.7975 49.2742L62.7803 50.3054ZM63.3296 33.8025L62.2984 64.7854L143.405 67.4849L144.437 36.5021L145.468 5.51924L64.3609 2.81968L63.3296 33.8025ZM144.437 36.5021L113.454 35.4709L112.905 51.9737L143.887 53.0049L174.87 54.0362L175.42 37.5333L144.437 36.5021ZM143.887 53.0049L144.919 22.0221L113.448 20.9746L112.417 51.9575L111.386 82.9403L142.856 83.9878L143.887 53.0049ZM112.417 51.9575L81.434 50.9263L79.0027 123.974L109.986 125.005L140.968 126.036L143.4 52.9887L112.417 51.9575ZM109.986 125.005L111.017 94.0222L93.1067 93.4261L92.0755 124.409L91.0442 155.392L108.954 155.988L109.986 125.005ZM149.747 126.328L118.764 125.297C118.194 142.409 131.604 156.742 148.715 157.311L149.747 126.328ZM152.727 36.778L153.758 5.79518C136.647 5.22565 122.314 18.6354 121.744 35.7468L152.727 36.778ZM226.67 39.2391L257.653 40.2704C258.223 23.159 244.813 8.82582 227.701 8.25629L226.67 39.2391ZM226.121 55.742L225.09 86.7248C242.201 87.2944 256.534 73.8846 257.104 56.7732L226.121 55.742ZM170.088 53.877L171.119 22.8942C154.008 22.3246 139.675 35.7344 139.105 52.8458L170.088 53.877ZM169.424 73.834L138.441 72.8027C137.871 89.9141 151.281 104.247 168.392 104.817L169.424 73.834ZM223.41 75.6308L254.393 76.6621C254.962 59.5507 241.552 45.2175 224.441 44.648L223.41 75.6308ZM222.861 92.1337L221.829 123.117C238.941 123.686 253.274 110.276 253.843 93.1649L222.861 92.1337ZM168.874 90.3368L169.906 59.354C152.794 58.7844 138.461 72.1942 137.892 89.3056L168.874 90.3368ZM168.21 110.294L137.227 109.263C136.658 126.374 150.068 140.707 167.179 141.277L168.21 110.294ZM224.243 112.159L255.226 113.19C255.796 96.0786 242.386 81.7455 225.274 81.1759L224.243 112.159ZM223.69 128.79L222.658 159.772C239.77 160.342 254.103 146.932 254.672 129.821L223.69 128.79ZM149.747 126.328L180.729 127.36L183.71 37.8093L152.727 36.778L121.744 35.7468L118.764 125.297L149.747 126.328ZM152.727 36.778L151.696 67.7609L225.639 70.222L226.67 39.2391L227.701 8.25629L153.758 5.79518L152.727 36.778ZM226.67 39.2391L195.687 38.2079L195.138 54.7108L226.121 55.742L257.104 56.7732L257.653 40.2704L226.67 39.2391ZM226.121 55.742L227.152 24.7592L171.119 22.8942L170.088 53.877L169.057 84.8598L225.09 86.7248L226.121 55.742ZM170.088 53.877L139.105 52.8458L138.441 72.8027L169.424 73.834L200.407 74.8652L201.071 54.9082L170.088 53.877ZM169.424 73.834L168.392 104.817L222.379 106.614L223.41 75.6308L224.441 44.648L170.455 42.8511L169.424 73.834ZM223.41 75.6308L192.427 74.5996L191.878 91.1025L222.861 92.1337L253.843 93.1649L254.393 76.6621L223.41 75.6308ZM222.861 92.1337L223.892 61.1508L169.906 59.354L168.874 90.3368L167.843 121.32L221.829 123.117L222.861 92.1337ZM168.874 90.3368L137.892 89.3056L137.227 109.263L168.21 110.294L199.193 111.325L199.857 91.368L168.874 90.3368ZM168.21 110.294L167.179 141.277L223.212 143.142L224.243 112.159L225.274 81.1759L169.241 79.3109L168.21 110.294ZM224.243 112.159L193.26 111.128L192.707 127.758L223.69 128.79L254.672 129.821L255.226 113.19L224.243 112.159ZM223.69 128.79L224.721 97.8067L150.778 95.3456L149.747 126.328L148.715 157.311L222.658 159.772L223.69 128.79ZM299.559 131.315L274.265 149.238C279.867 157.144 288.843 161.975 298.527 162.298L299.559 131.315ZM280.598 104.557L305.892 86.6342C300.29 78.7284 291.313 73.8967 281.629 73.5744L280.598 104.557ZM256.292 103.748L257.323 72.7654C240.212 72.1958 225.878 85.6056 225.309 102.717L256.292 103.748ZM255.423 129.846L254.392 160.829C271.503 161.398 285.836 147.988 286.406 130.877L255.423 129.846ZM237.513 129.25L206.53 128.218C205.961 145.33 219.37 159.663 236.482 160.232L237.513 129.25ZM240.494 39.6992L241.525 8.71639C224.413 8.14685 210.08 21.5566 209.511 38.668L240.494 39.6992ZM300.286 101.755L288.011 73.2885C279.417 76.9946 272.957 84.3853 270.434 93.3983C267.911 102.411 269.595 112.082 275.017 119.711L300.286 101.755ZM321.818 132.056L320.787 163.039C332.565 163.431 343.546 157.111 349.125 146.731C354.703 136.35 353.914 123.705 347.088 114.099L321.818 132.056ZM257.854 56.7982L258.886 25.8154C241.774 25.2458 227.441 38.6556 226.871 55.767L257.854 56.7982ZM256.849 86.9895L225.867 85.9583C225.297 103.07 238.707 117.403 255.818 117.972L256.849 86.9895ZM299.559 131.315L324.852 113.392L305.892 86.6342L280.598 104.557L255.305 122.48L274.265 149.238L299.559 131.315ZM280.598 104.557L281.629 73.5744L257.323 72.7654L256.292 103.748L255.26 134.731L279.567 135.54L280.598 104.557ZM256.292 103.748L225.309 102.717L224.44 128.815L255.423 129.846L286.406 130.877L287.275 104.779L256.292 103.748ZM255.423 129.846L256.454 98.8629L238.544 98.2668L237.513 129.25L236.482 160.232L254.392 160.829L255.423 129.846ZM237.513 129.25L268.496 130.281L271.476 40.7305L240.494 39.6992L209.511 38.668L206.53 128.218L237.513 129.25ZM240.494 39.6992L239.462 70.6821L285.517 72.2149L286.548 41.2321L287.579 10.2493L241.525 8.71639L240.494 39.6992ZM286.548 41.2321L285.517 72.2149C288.418 72.3115 289.695 73.3082 289.842 73.4457C289.891 73.4911 289.759 73.3747 289.64 73.0925C289.509 72.7824 289.575 72.7048 289.562 73.094L320.545 74.1252L351.527 75.1565C352.86 35.1301 319.754 11.3201 287.579 10.2493L286.548 41.2321ZM320.545 74.1252L289.562 73.094C289.571 72.8207 289.631 72.528 289.722 72.2823C289.806 72.0531 289.875 71.9796 289.827 72.0429C289.774 72.1129 289.611 72.3041 289.288 72.552C288.965 72.8001 288.535 73.0625 288.011 73.2885L300.286 101.755L312.561 130.221C332.459 121.641 350.63 102.124 351.527 75.1565L320.545 74.1252ZM300.286 101.755L275.017 119.711L296.549 150.012L321.818 132.056L347.088 114.099L325.556 83.7979L300.286 101.755ZM321.818 132.056L322.849 101.073L300.59 100.332L299.559 131.315L298.527 162.298L320.787 163.039L321.818 132.056ZM302.635 73.5291L333.617 74.5603C334.591 45.31 310.609 27.5369 287.03 26.7521L285.999 57.735L284.968 88.7178C283.362 88.6644 280.045 87.9907 276.807 84.9112C273.358 81.6321 271.503 76.9548 271.652 72.4979L302.635 73.5291ZM285.999 57.735L287.03 26.7521L258.886 25.8154L257.854 56.7982L256.823 87.7811L284.968 88.7178L285.999 57.735ZM257.854 56.7982L226.871 55.767L225.867 85.9583L256.849 86.9895L287.832 88.0207L288.837 57.8294L257.854 56.7982ZM256.849 86.9895L255.818 117.972L283.963 118.909L284.994 87.9263L286.025 56.9434L257.881 56.0067L256.849 86.9895ZM284.994 87.9263L283.963 118.909C307.07 119.678 332.647 103.731 333.617 74.5603L302.635 73.5291L271.652 72.4979C271.824 67.3195 274.366 62.825 277.714 60.0717C280.916 57.4396 284.124 56.8801 286.025 56.9434L284.994 87.9263ZM354.852 96.5269L323.87 95.4957C323.3 112.607 336.71 126.94 353.821 127.51L354.852 96.5269ZM355.397 80.152L356.429 49.1691C339.317 48.5996 324.984 62.0094 324.415 79.1207L355.397 80.152ZM461.707 83.6903L492.689 84.7216C493.259 67.6102 479.849 53.277 462.738 52.7075L461.707 83.6903ZM461.162 100.065L460.13 131.048C477.242 131.618 491.575 118.208 492.144 101.096L461.162 100.065ZM354.852 96.5269L385.835 97.5581L386.38 81.1832L355.397 80.152L324.415 79.1207L323.87 95.4957L354.852 96.5269ZM355.397 80.152L354.366 111.135L460.675 114.673L461.707 83.6903L462.738 52.7075L356.429 49.1691L355.397 80.152ZM461.707 83.6903L430.724 82.6591L430.179 99.034L461.162 100.065L492.144 101.096L492.689 84.7216L461.707 83.6903ZM461.162 100.065L462.193 69.0824L355.884 65.544L354.852 96.5269L353.821 127.51L460.13 131.048L461.162 100.065ZM503.233 48.4442L504.264 17.4614C487.153 16.8918 472.82 30.3016 472.25 47.413L503.233 48.4442ZM576.153 50.8713L607.136 51.9025C607.705 34.7911 594.295 20.458 577.184 19.8884L576.153 50.8713ZM575.633 66.4786L574.602 97.4615C591.713 98.031 606.047 84.6212 606.616 67.5099L575.633 66.4786ZM520.624 64.6477L521.655 33.6649C504.544 33.0953 490.21 46.5051 489.641 63.6165L520.624 64.6477ZM520.062 81.5343L489.079 80.5031C488.509 97.6145 501.919 111.948 519.03 112.517L520.062 81.5343ZM500.252 137.995L469.27 136.963C468.7 154.075 482.11 168.408 499.221 168.977L500.252 137.995ZM519.534 97.3976L520.565 66.4147C503.453 65.8452 489.12 79.255 488.551 96.3663L519.534 97.3976ZM518.686 122.855L487.703 121.824C487.134 138.936 500.544 153.269 517.655 153.838L518.686 122.855ZM503.233 48.4442L502.202 79.4271L575.121 81.8541L576.153 50.8713L577.184 19.8884L504.264 17.4614L503.233 48.4442ZM576.153 50.8713L545.17 49.84L544.65 65.4474L575.633 66.4786L606.616 67.5099L607.136 51.9025L576.153 50.8713ZM575.633 66.4786L576.664 35.4958L521.655 33.6649L520.624 64.6477L519.592 95.6305L574.602 97.4615L575.633 66.4786ZM520.624 64.6477L489.641 63.6165L489.079 80.5031L520.062 81.5343L551.044 82.5656L551.607 65.6789L520.624 64.6477ZM520.062 81.5343L519.03 112.517L549.605 113.535L550.637 82.552L551.668 51.5692L521.093 50.5515L520.062 81.5343ZM550.637 82.552L549.605 113.535C550.344 113.559 551.046 113.715 551.641 113.949C552.247 114.187 552.57 114.438 552.651 114.51C552.725 114.577 552.436 114.344 552.12 113.662C551.772 112.914 551.555 111.959 551.586 111.015L582.569 112.047L613.552 113.078C614.834 74.5559 580.537 52.53 551.668 51.5692L550.637 82.552ZM582.569 112.047L551.586 111.015C551.593 110.802 551.682 110.174 552.075 109.419C552.449 108.699 552.878 108.287 553.076 108.132C553.248 107.997 553.125 108.145 552.543 108.322C551.967 108.497 551.035 108.668 549.769 108.626L548.738 139.608L547.706 170.591C577.543 171.584 612.246 152.328 613.552 113.078L582.569 112.047ZM548.738 139.608L549.769 108.626L501.284 107.012L500.252 137.995L499.221 168.977L547.706 170.591L548.738 139.608ZM500.252 137.995L531.235 139.026L534.216 49.4754L503.233 48.4442L472.25 47.413L469.27 136.963L500.252 137.995ZM564.659 111.45L595.642 112.482C596.587 84.1001 572.235 68.1345 551.14 67.4324L550.109 98.4152L549.077 129.398C546.773 129.321 543.199 128.426 539.809 125.324C536.322 122.135 533.463 116.828 533.676 110.419L564.659 111.45ZM550.109 98.4152L551.14 67.4324L520.565 66.4147L519.534 97.3976L518.502 128.38L549.077 129.398L550.109 98.4152ZM519.534 97.3976L488.551 96.3663L487.703 121.824L518.686 122.855L549.669 123.887L550.516 98.4288L519.534 97.3976ZM518.686 122.855L517.655 153.838L548.23 154.856L549.261 123.873L550.293 92.8903L519.718 91.8726L518.686 122.855ZM549.261 123.873L548.23 154.856C570.073 155.583 594.698 140.84 595.642 112.482L564.659 111.45L533.676 110.419C533.855 105.063 536.452 99.9026 540.582 96.5331C544.476 93.3567 548.317 92.8245 550.293 92.8903L549.261 123.873ZM588.912 96.2488L619.895 97.2801C620.176 88.8548 626.037 81.6277 638.564 82.0447L639.595 51.0618L640.627 20.079C596.865 18.6224 559.446 49.6567 557.929 95.2176L588.912 96.2488ZM639.595 51.0618L638.564 82.0447C645.61 82.2792 649.926 84.7219 652.224 87.0256C654.343 89.1497 656.247 92.596 656.051 98.4835L687.034 99.5147L718.017 100.546C718.753 78.4169 710.947 58.103 696.117 43.2379C681.467 28.5524 661.597 20.777 640.627 20.079L639.595 51.0618ZM687.034 99.5147L656.051 98.4835C655.865 104.069 653.815 107.345 651.502 109.37C649.01 111.551 644.511 113.7 637.518 113.467L636.487 144.45L635.456 175.433C678.622 176.87 716.464 147.188 718.017 100.546L687.034 99.5147ZM636.487 144.45L637.518 113.467C625.007 113.051 619.631 105.215 619.895 97.2801L588.912 96.2488L557.929 95.2176C556.422 140.501 591.934 173.984 635.456 175.433L636.487 144.45ZM606.822 96.845L575.839 95.8137C574.635 131.994 602.605 157.178 636.026 158.29L637.058 127.308L638.089 96.3248C637.007 96.2888 636.481 96.0928 636.383 96.0528C636.293 96.0158 636.527 96.0986 636.876 96.4492C637.235 96.8095 637.524 97.2627 637.692 97.6997C637.859 98.1347 637.793 98.2545 637.805 97.8762L606.822 96.845ZM637.058 127.308L636.026 158.29C652.153 158.827 668.111 153.97 680.461 142.961C692.913 131.859 699.56 116.372 700.107 99.9498L669.124 98.9186L638.141 97.8874C638.123 98.4314 638.032 98.4009 638.211 98.004C638.396 97.5934 638.733 97.1 639.202 96.6815C639.664 96.2699 640 96.1551 639.966 96.1664C639.916 96.1832 639.34 96.3664 638.089 96.3248L637.058 127.308ZM669.124 98.9186L700.107 99.9498C700.654 83.5076 695.171 67.5114 683.406 55.4901C671.752 43.5812 656.096 37.7554 640.056 37.2215L639.025 68.2043L637.994 99.1872C639.284 99.2301 639.857 99.4562 639.896 99.4724C639.915 99.48 639.557 99.3271 639.095 98.8553C638.878 98.633 638.681 98.383 638.516 98.121C638.351 97.8592 638.245 97.6274 638.181 97.4548C638.045 97.0852 638.165 97.1618 638.141 97.8874L669.124 98.9186ZM639.025 68.2043L640.056 37.2215C624.068 36.6893 608.135 41.5053 595.754 52.4482C583.22 63.5265 576.396 79.0918 575.839 95.8137L606.822 96.845L637.805 97.8762C637.825 97.2725 637.927 97.275 637.753 97.6581C637.673 97.8347 637.552 98.0519 637.38 98.2838C637.209 98.5155 637.015 98.7254 636.814 98.9037C636.388 99.2799 636.095 99.371 636.164 99.3482C636.247 99.3205 636.816 99.148 637.994 99.1872L639.025 68.2043ZM703.507 110.309L734.212 114.578C734.226 114.475 734.24 114.372 734.253 114.269L703.507 110.309ZM710.587 55.3458L711.618 24.3629C695.644 23.8312 681.883 35.5325 679.841 51.3851L710.587 55.3458ZM785.554 57.8409L816.537 58.8722C817.106 41.7608 803.696 27.4276 786.585 26.8581L785.554 57.8409ZM782.573 147.391L781.542 178.374C798.653 178.944 812.986 165.534 813.556 148.423L782.573 147.391ZM764.663 146.795L733.68 145.764C733.111 162.875 746.52 177.209 763.632 177.778L764.663 146.795ZM767.094 73.7477L798.077 74.7789C798.647 57.6676 785.237 43.3344 768.126 42.7649L767.094 73.7477ZM726.541 72.3979L727.572 41.4151C711.647 40.885 697.913 52.5146 695.812 68.3097L726.541 72.3979ZM721.588 109.63L690.858 105.542C690.854 105.572 690.85 105.602 690.846 105.632L721.588 109.63ZM689.121 146.202L658.138 145.171C657.569 162.282 670.978 176.615 688.09 177.185L689.121 146.202ZM689.666 129.827L690.697 98.8442C673.586 98.2747 659.253 111.684 658.683 128.796L689.666 129.827ZM703.507 110.309L734.253 114.269L741.333 59.3064L710.587 55.3458L679.841 51.3851L672.761 106.348L703.507 110.309ZM710.587 55.3458L709.556 86.3286L784.522 88.8238L785.554 57.8409L786.585 26.8581L711.618 24.3629L710.587 55.3458ZM785.554 57.8409L754.571 56.8097L751.59 146.36L782.573 147.391L813.556 148.423L816.537 58.8722L785.554 57.8409ZM782.573 147.391L783.604 116.409L765.694 115.812L764.663 146.795L763.632 177.778L781.542 178.374L782.573 147.391ZM764.663 146.795L795.646 147.826L798.077 74.7789L767.094 73.7477L736.112 72.7165L733.68 145.764L764.663 146.795ZM767.094 73.7477L768.126 42.7649L727.572 41.4151L726.541 72.3979L725.51 103.381L766.063 104.731L767.094 73.7477ZM726.541 72.3979L695.812 68.3097L690.858 105.542L721.588 109.63L752.317 113.718L757.27 76.4861L726.541 72.3979ZM721.588 109.63L690.846 105.632C690.086 111.482 689.226 115.13 688.493 117.316C687.776 119.456 687.516 119.175 688.504 118.057C689.024 117.47 689.731 116.833 690.597 116.27C691.455 115.712 692.209 115.396 692.697 115.235C693.529 114.962 693.052 115.316 690.152 115.219L689.121 146.202L688.09 177.185C703.175 177.687 721.289 174.57 734.941 159.138C746.592 145.968 750.395 128.5 752.329 113.627L721.588 109.63ZM689.121 146.202L720.104 147.233L720.649 130.858L689.666 129.827L658.683 128.796L658.138 145.171L689.121 146.202ZM689.666 129.827L688.635 160.81C693.94 160.986 700.692 160.376 707.679 157.276C714.986 154.034 720.522 148.97 724.454 143.31C731.169 133.644 733.165 122.107 734.212 114.578L703.507 110.309L672.802 106.04C672.404 108.903 672.063 110.353 671.9 110.915C671.715 111.554 672.025 110.111 673.536 107.936C675.316 105.374 678.298 102.483 682.534 100.603C686.45 98.8659 689.614 98.8081 690.697 98.8442L689.666 129.827ZM799.139 58.2931L800.17 27.3103C783.059 26.7407 768.726 40.1505 768.156 57.2619L799.139 58.2931ZM817.049 58.8892L848.032 59.9205C848.602 42.8091 835.192 28.4759 818.081 27.9064L817.049 58.8892ZM816.155 85.7544L785.172 84.7231C784.603 101.834 798.013 116.168 815.124 116.737L816.155 85.7544ZM796.159 147.844L765.176 146.812C764.606 163.924 778.016 178.257 795.127 178.826L796.159 147.844ZM815.627 101.618L816.658 70.6347C799.547 70.0652 785.214 83.475 784.644 100.586L815.627 101.618ZM814.592 132.704L783.61 131.673C783.04 148.784 796.45 163.118 813.561 163.687L814.592 132.704ZM799.139 58.2931L798.108 89.276L816.018 89.8721L817.049 58.8892L818.081 27.9064L800.17 27.3103L799.139 58.2931ZM817.049 58.8892L786.066 57.858L785.172 84.7231L816.155 85.7544L847.138 86.7856L848.032 59.9205L817.049 58.8892ZM816.155 85.7544L815.124 116.737L843.78 117.691L844.811 86.7082L845.842 55.7253L817.186 54.7715L816.155 85.7544ZM844.811 86.7082L843.78 117.691C845.624 117.752 846.916 118.49 847.541 119.093C847.831 119.371 847.845 119.491 847.772 119.323C847.682 119.117 847.565 118.699 847.582 118.178L878.565 119.209L909.548 120.24C910.786 83.0352 878.907 56.8258 845.842 55.7253L844.811 86.7082ZM878.565 119.209L847.582 118.178C847.573 118.441 847.537 118.331 847.678 118.042C847.738 117.921 847.807 117.814 847.874 117.729C847.939 117.646 847.983 117.609 847.983 117.609C847.981 117.611 847.922 117.66 847.782 117.737C847.642 117.813 847.415 117.92 847.085 118.027C846.43 118.24 845.335 118.463 843.756 118.411L842.725 149.393L841.694 180.376C875.505 181.502 908.271 158.602 909.548 120.24L878.565 119.209ZM842.725 149.393L843.756 118.411L797.19 116.861L796.159 147.844L795.127 178.826L841.694 180.376L842.725 149.393ZM796.159 147.844L827.141 148.875L830.122 59.3244L799.139 58.2931L768.156 57.2619L765.176 146.812L796.159 147.844ZM860.655 118.613L891.638 119.644C892.575 91.4713 869.559 72.3955 845.314 71.5885L844.283 102.571L843.252 133.554C840.692 133.469 837.337 132.404 834.432 129.545C831.45 126.611 829.516 122.258 829.672 117.582L860.655 118.613ZM844.283 102.571L845.314 71.5885L816.658 70.6347L815.627 101.618L814.596 132.6L843.252 133.554L844.283 102.571ZM815.627 101.618L784.644 100.586L783.61 131.673L814.592 132.704L845.575 133.736L846.61 102.649L815.627 101.618ZM814.592 132.704L813.561 163.687L842.217 164.641L843.249 133.658L844.28 102.675L815.624 101.722L814.592 132.704ZM843.249 133.658L842.217 164.641C867.039 165.467 890.701 147.775 891.638 119.644L860.655 118.613L829.672 117.582C829.805 113.584 831.675 109.285 835.183 106.232C838.579 103.277 842.16 102.605 844.28 102.675L843.249 133.658ZM887.298 150.877L856.315 149.846C855.746 166.957 869.156 181.29 886.267 181.86L887.298 150.877ZM890.279 61.3266L891.31 30.3438C874.199 29.7742 859.865 43.184 859.296 60.2954L890.279 61.3266ZM908.189 61.9227L939.172 62.9539C939.741 45.8426 926.331 31.5094 909.22 30.9399L908.189 61.9227ZM905.762 134.842L874.779 133.811C874.209 150.922 887.619 165.256 904.731 165.825L905.762 134.842ZM948.49 136.265L947.459 167.247C964.57 167.817 978.903 154.407 979.473 137.296L948.49 136.265ZM950.917 63.3449L951.948 32.362C934.837 31.7925 920.504 45.2023 919.934 62.3137L950.917 63.3449ZM968.827 63.941L999.81 64.9722C1000.38 47.8609 986.97 33.5277 969.858 32.9582L968.827 63.941ZM966.4 136.861L935.417 135.829C934.848 152.941 948.258 167.274 965.369 167.843L966.4 136.861ZM1009.13 138.283L1008.1 169.266C1025.21 169.835 1039.54 156.425 1040.11 139.314L1009.13 138.283ZM1011.56 65.3632L1012.59 34.3803C995.475 33.8108 981.142 47.2206 980.573 64.3319L1011.56 65.3632ZM1029.47 65.9593L1060.45 66.9905C1061.02 49.8792 1047.61 35.546 1030.5 34.9764L1029.47 65.9593ZM1026.49 155.51L1025.45 186.493C1042.57 187.062 1056.9 173.652 1057.47 156.541L1026.49 155.51ZM887.298 150.877L918.281 151.908L921.262 62.3578L890.279 61.3266L859.296 60.2954L856.315 149.846L887.298 150.877ZM890.279 61.3266L889.248 92.3094L907.158 92.9056L908.189 61.9227L909.22 30.9399L891.31 30.3438L890.279 61.3266ZM908.189 61.9227L877.206 60.8915L874.779 133.811L905.762 134.842L936.745 135.874L939.172 62.9539L908.189 61.9227ZM905.762 134.842L904.731 165.825L947.459 167.247L948.49 136.265L949.521 105.282L906.793 103.86L905.762 134.842ZM948.49 136.265L979.473 137.296L981.9 64.3761L950.917 63.3449L919.934 62.3137L917.507 135.233L948.49 136.265ZM950.917 63.3449L949.886 94.3277L967.796 94.9238L968.827 63.941L969.858 32.9582L951.948 32.362L950.917 63.3449ZM968.827 63.941L937.844 62.9098L935.417 135.829L966.4 136.861L997.383 137.892L999.81 64.9722L968.827 63.941ZM966.4 136.861L965.369 167.843L1008.1 169.266L1009.13 138.283L1010.16 107.3L967.431 105.878L966.4 136.861ZM1009.13 138.283L1040.11 139.314L1042.54 66.3944L1011.56 65.3632L980.573 64.3319L978.146 137.252L1009.13 138.283ZM1011.56 65.3632L1010.52 96.346L1028.43 96.9421L1029.47 65.9593L1030.5 34.9764L1012.59 34.3803L1011.56 65.3632ZM1029.47 65.9593L998.483 64.9281L995.502 154.478L1026.49 155.51L1057.47 156.541L1060.45 66.9905L1029.47 65.9593ZM1026.49 155.51L1027.52 124.527L888.329 119.894L887.298 150.877L886.267 181.86L1025.45 186.493L1026.49 155.51ZM1040.03 155.96L1009.05 154.929C1008.48 172.041 1021.89 186.374 1039 186.943L1040.03 155.96ZM1043.01 66.4101L1044.04 35.4272C1026.93 34.8577 1012.6 48.2675 1012.03 65.3788L1043.01 66.4101ZM1116.95 68.8712L1147.94 69.9024C1148.5 52.7911 1135.09 38.4579 1117.98 37.8883L1116.95 68.8712ZM1116.4 85.374L1115.37 116.357C1132.48 116.926 1146.82 103.517 1147.39 86.4053L1116.4 85.374ZM1060.37 83.509L1061.4 52.5262C1044.29 51.9567 1029.96 65.3665 1029.39 82.4778L1060.37 83.509ZM1059.71 103.466L1028.72 102.435C1028.15 119.546 1041.56 133.879 1058.67 134.449L1059.71 103.466ZM1113.69 105.263L1144.67 106.294C1145.24 89.1827 1131.83 74.8495 1114.72 74.28L1113.69 105.263ZM1113.14 121.766L1112.11 152.749C1129.22 153.318 1143.56 139.908 1144.13 122.797L1113.14 121.766ZM1059.16 119.969L1060.19 88.986C1043.08 88.4165 1028.74 101.826 1028.17 118.938L1059.16 119.969ZM1058.49 139.926L1027.51 138.895C1026.94 156.006 1040.35 170.339 1057.46 170.909L1058.49 139.926ZM1114.53 141.791L1145.51 142.822C1146.08 125.711 1132.67 111.377 1115.56 110.808L1114.53 141.791ZM1113.97 158.422L1112.94 189.404C1130.05 189.974 1144.38 176.564 1144.95 159.453L1113.97 158.422ZM1040.03 155.96L1071.01 156.992L1073.99 67.4413L1043.01 66.4101L1012.03 65.3788L1009.05 154.929L1040.03 155.96ZM1043.01 66.4101L1041.98 97.3929L1115.92 99.854L1116.95 68.8712L1117.98 37.8883L1044.04 35.4272L1043.01 66.4101ZM1116.95 68.8712L1085.97 67.8399L1085.42 84.3428L1116.4 85.374L1147.39 86.4053L1147.94 69.9024L1116.95 68.8712ZM1116.4 85.374L1117.43 54.3912L1061.4 52.5262L1060.37 83.509L1059.34 114.492L1115.37 116.357L1116.4 85.374ZM1060.37 83.509L1029.39 82.4778L1028.72 102.435L1059.71 103.466L1090.69 104.497L1091.35 84.5403L1060.37 83.509ZM1059.71 103.466L1058.67 134.449L1112.66 136.246L1113.69 105.263L1114.72 74.28L1060.74 72.4832L1059.71 103.466ZM1113.69 105.263L1082.71 104.232L1082.16 120.734L1113.14 121.766L1144.13 122.797L1144.67 106.294L1113.69 105.263ZM1113.14 121.766L1114.17 90.7829L1060.19 88.986L1059.16 119.969L1058.13 150.952L1112.11 152.749L1113.14 121.766ZM1059.16 119.969L1028.17 118.938L1027.51 138.895L1058.49 139.926L1089.47 140.957L1090.14 121L1059.16 119.969ZM1058.49 139.926L1057.46 170.909L1113.49 172.774L1114.53 141.791L1115.56 110.808L1059.52 108.943L1058.49 139.926ZM1114.53 141.791L1083.54 140.76L1082.99 157.39L1113.97 158.422L1144.95 159.453L1145.51 142.822L1114.53 141.791ZM1113.97 158.422L1115 127.439L1041.06 124.978L1040.03 155.96L1039 186.943L1112.94 189.404L1113.97 158.422ZM1124.24 177.078L1093.44 173.555C1092.46 182.155 1095.12 190.774 1100.77 197.327C1106.43 203.881 1114.56 207.773 1123.21 208.06L1124.24 177.078ZM1128.04 143.905L1129.07 112.923C1112.92 112.385 1099.07 124.335 1097.24 140.383L1128.04 143.905ZM1146.71 144.527L1176.95 151.391C1178.99 142.373 1176.91 132.912 1171.26 125.591C1165.61 118.269 1156.99 113.852 1147.75 113.544L1146.71 144.527ZM1139.21 177.576L1138.18 208.559C1153.04 209.053 1166.15 198.934 1169.44 184.44L1139.21 177.576ZM1124.24 177.078L1155.04 180.6L1158.84 147.428L1128.04 143.905L1097.24 140.383L1093.44 173.555L1124.24 177.078ZM1128.04 143.905L1127.01 174.888L1145.68 175.51L1146.71 144.527L1147.75 113.544L1129.07 112.923L1128.04 143.905ZM1146.71 144.527L1116.48 137.663L1108.98 170.712L1139.21 177.576L1169.44 184.44L1176.95 151.391L1146.71 144.527ZM1139.21 177.576L1140.24 146.593L1125.27 146.095L1124.24 177.078L1123.21 208.06L1138.18 208.559L1139.21 177.576ZM199.352 160.397L200.383 129.415C183.272 128.845 168.938 142.255 168.369 159.366L199.352 160.397ZM217.262 160.994L248.245 162.025C248.814 144.913 235.404 130.58 218.293 130.011L217.262 160.994ZM214.281 250.544L213.25 281.527C230.361 282.096 244.694 268.687 245.264 251.575L214.281 250.544ZM196.371 249.948L165.388 248.917C164.819 266.028 178.229 280.361 195.34 280.931L196.371 249.948ZM197.657 211.313L228.64 212.344C229.089 198.844 220.745 186.607 208.013 182.094C195.281 177.582 181.092 181.833 172.94 192.603L197.657 211.313ZM137.05 158.324L138.081 127.341C120.97 126.771 106.637 140.181 106.067 157.293L137.05 158.324ZM154.96 158.92L185.943 159.951C186.513 142.84 173.103 128.507 155.991 127.937L154.96 158.92ZM198.436 187.902L229.419 188.933L230.335 161.429L199.352 160.397L168.369 159.366L167.453 186.871L198.436 187.902ZM199.352 160.397L198.32 191.38L216.231 191.976L217.262 160.994L218.293 130.011L200.383 129.415L199.352 160.397ZM217.262 160.994L186.279 159.962L183.298 249.513L214.281 250.544L245.264 251.575L248.245 162.025L217.262 160.994ZM214.281 250.544L215.312 219.561L197.402 218.965L196.371 249.948L195.34 280.931L213.25 281.527L214.281 250.544ZM196.371 249.948L227.354 250.979L228.64 212.344L197.657 211.313L166.674 210.282L165.388 248.917L196.371 249.948ZM197.657 211.313L172.94 192.603C172.345 193.389 171.88 193.664 171.758 193.725C171.724 193.743 171.703 193.751 171.694 193.755C171.685 193.758 171.68 193.759 171.677 193.76C171.674 193.76 171.662 193.763 171.636 193.765C171.61 193.768 171.557 193.771 171.474 193.769L170.443 224.751L169.412 255.734C191.776 256.479 210.606 245.571 222.374 230.023L197.657 211.313ZM170.443 224.751L171.474 193.769C170.606 193.74 170.16 193.56 169.945 193.454C169.706 193.336 169.386 193.121 169.013 192.675C168.262 191.775 167.029 189.515 167.16 185.581L136.177 184.549L105.194 183.518C104.014 218.994 128.25 254.364 169.412 255.734L170.443 224.751ZM136.177 184.549L167.16 185.581L168.033 159.355L137.05 158.324L106.067 157.293L105.194 183.518L136.177 184.549ZM137.05 158.324L136.019 189.307L153.929 189.903L154.96 158.92L155.991 127.937L138.081 127.341L137.05 158.324ZM154.96 158.92L123.977 157.889L123.105 184.114L154.087 185.145L185.07 186.177L185.943 159.951L154.96 158.92ZM154.087 185.145L123.105 184.114C122.19 211.6 142.794 238.327 174.694 239.389L175.726 208.406L176.757 177.423C178.77 177.49 181.21 178.531 182.944 180.482C184.481 182.212 185.134 184.269 185.07 186.177L154.087 185.145ZM175.726 208.406L174.694 239.389C205.343 240.409 228.487 216.94 229.419 188.933L198.436 187.902L167.453 186.871C167.537 184.36 168.618 181.876 170.563 180.034C172.686 178.024 175.185 177.371 176.757 177.423L175.726 208.406ZM228.207 251.007L197.225 249.976C196.655 267.088 210.065 281.421 227.176 281.99L228.207 251.007ZM231.188 161.457L232.219 130.474C215.108 129.905 200.775 143.314 200.205 160.426L231.188 161.457ZM305.131 163.918L336.114 164.949C336.683 147.838 323.274 133.505 306.162 132.935L305.131 163.918ZM304.582 180.421L303.551 211.404C320.662 211.973 334.995 198.564 335.565 181.452L304.582 180.421ZM248.549 178.556L249.58 147.573C232.469 147.004 218.136 160.413 217.566 177.525L248.549 178.556ZM247.885 198.513L216.902 197.482C216.332 214.593 229.742 228.926 246.853 229.496L247.885 198.513ZM301.871 200.31L332.854 201.341C333.423 184.23 320.013 169.897 302.902 169.327L301.871 200.31ZM301.321 216.813L300.29 247.796C317.402 248.365 331.735 234.955 332.304 217.844L301.321 216.813ZM247.335 215.016L248.367 184.033C231.255 183.463 216.922 196.873 216.352 213.985L247.335 215.016ZM246.671 234.973L215.688 233.942C215.119 251.053 228.529 265.386 245.64 265.956L246.671 234.973ZM302.704 236.838L333.687 237.869C334.256 220.758 320.847 206.424 303.735 205.855L302.704 236.838ZM302.151 253.469L301.119 284.451C318.231 285.021 332.564 271.611 333.133 254.5L302.151 253.469ZM228.207 251.007L259.19 252.039L262.171 162.488L231.188 161.457L200.205 160.426L197.225 249.976L228.207 251.007ZM231.188 161.457L230.157 192.44L304.1 194.901L305.131 163.918L306.162 132.935L232.219 130.474L231.188 161.457ZM305.131 163.918L274.148 162.887L273.599 179.39L304.582 180.421L335.565 181.452L336.114 164.949L305.131 163.918ZM304.582 180.421L305.613 149.438L249.58 147.573L248.549 178.556L247.518 209.539L303.551 211.404L304.582 180.421ZM248.549 178.556L217.566 177.525L216.902 197.482L247.885 198.513L278.867 199.544L279.532 179.587L248.549 178.556ZM247.885 198.513L246.853 229.496L300.839 231.293L301.871 200.31L302.902 169.327L248.916 167.53L247.885 198.513ZM301.871 200.31L270.888 199.279L270.339 215.781L301.321 216.813L332.304 217.844L332.854 201.341L301.871 200.31ZM301.321 216.813L302.353 185.83L248.367 184.033L247.335 215.016L246.304 245.999L300.29 247.796L301.321 216.813ZM247.335 215.016L216.352 213.985L215.688 233.942L246.671 234.973L277.654 236.004L278.318 216.047L247.335 215.016ZM246.671 234.973L245.64 265.956L301.673 267.821L302.704 236.838L303.735 205.855L247.702 203.99L246.671 234.973ZM302.704 236.838L271.721 235.807L271.168 252.437L302.151 253.469L333.133 254.5L333.687 237.869L302.704 236.838ZM302.151 253.469L303.182 222.486L229.239 220.025L228.207 251.007L227.176 281.99L301.119 284.451L302.151 253.469ZM335.804 196.829L364.694 185.587C359.356 171.868 345.105 163.795 330.593 166.27C316.081 168.745 305.311 181.084 304.821 195.798L335.804 196.829ZM333.884 254.525L332.853 285.508C349.964 286.077 364.297 272.667 364.867 255.556L333.884 254.525ZM315.974 253.929L284.991 252.897C284.421 270.009 297.831 284.342 314.943 284.912L315.974 253.929ZM318.954 164.378L319.986 133.395C302.874 132.826 288.541 146.236 287.972 163.347L318.954 164.378ZM341.726 165.136L370.653 153.991C366.179 142.379 355.195 134.567 342.757 134.153L341.726 165.136ZM368.368 234.285L339.441 245.43C343.919 257.051 354.915 264.864 367.362 265.268C379.808 265.673 391.289 258.59 396.511 247.284L368.368 234.285ZM399.422 167.057L400.453 136.074C387.998 135.659 376.505 142.743 371.279 154.057L399.422 167.057ZM422.193 167.814L453.176 168.846C453.746 151.734 440.336 137.401 423.225 136.832L422.193 167.814ZM419.213 257.365L418.181 288.348C435.293 288.917 449.626 275.507 450.196 258.396L419.213 257.365ZM401.303 256.769L370.32 255.738C369.75 272.849 383.16 287.182 400.271 287.752L401.303 256.769ZM403.214 199.329L434.197 200.36C434.687 185.656 424.774 172.633 410.47 169.19C396.167 165.746 381.413 172.83 375.157 186.146L403.214 199.329ZM376.612 255.947L375.581 286.93C387.963 287.342 399.401 280.342 404.67 269.13L376.612 255.947ZM358.574 255.347L329.684 266.588C334.183 278.15 345.143 285.917 357.543 286.329L358.574 255.347ZM335.804 196.829L304.821 195.798L302.901 253.494L333.884 254.525L364.867 255.556L366.787 197.86L335.804 196.829ZM333.884 254.525L334.915 223.542L317.005 222.946L315.974 253.929L314.943 284.912L332.853 285.508L333.884 254.525ZM315.974 253.929L346.957 254.96L349.937 165.41L318.954 164.378L287.972 163.347L284.991 252.897L315.974 253.929ZM318.954 164.378L317.923 195.361L340.695 196.119L341.726 165.136L342.757 134.153L319.986 133.395L318.954 164.378ZM341.726 165.136L312.799 176.282L339.441 245.43L368.368 234.285L397.295 223.139L370.653 153.991L341.726 165.136ZM368.368 234.285L396.511 247.284L427.565 180.056L399.422 167.057L371.279 154.057L340.226 221.285L368.368 234.285ZM399.422 167.057L398.391 198.039L421.162 198.797L422.193 167.814L423.225 136.832L400.453 136.074L399.422 167.057ZM422.193 167.814L391.21 166.783L388.23 256.334L419.213 257.365L450.196 258.396L453.176 168.846L422.193 167.814ZM419.213 257.365L420.244 226.382L402.334 225.786L401.303 256.769L400.271 287.752L418.181 288.348L419.213 257.365ZM401.303 256.769L432.285 257.8L434.197 200.36L403.214 199.329L372.232 198.297L370.32 255.738L401.303 256.769ZM403.214 199.329L375.157 186.146L348.555 242.764L376.612 255.947L404.67 269.13L431.272 212.511L403.214 199.329ZM376.612 255.947L377.644 224.964L359.606 224.364L358.574 255.347L357.543 286.329L375.581 286.93L376.612 255.947ZM358.574 255.347L387.464 244.105L364.694 185.587L335.804 196.829L306.914 208.07L329.684 266.588L358.574 255.347ZM465.503 169.256L466.535 138.273C449.423 137.704 435.09 151.113 434.52 168.225L465.503 169.256ZM553.007 172.168L583.99 173.2C584.559 156.088 571.149 141.755 554.038 141.186L553.007 172.168ZM550.026 261.719L548.995 292.702C566.106 293.271 580.44 279.861 581.009 262.75L550.026 261.719ZM532.116 261.123L501.133 260.092C500.564 277.203 513.974 291.536 531.085 292.106L532.116 261.123ZM534.547 188.075L565.53 189.106C566.1 171.995 552.69 157.662 535.579 157.092L534.547 188.075ZM482.864 186.355L483.895 155.372C466.784 154.803 452.451 168.212 451.881 185.324L482.864 186.355ZM480.433 259.403L479.402 290.385C496.513 290.955 510.846 277.545 511.416 260.434L480.433 259.403ZM462.523 258.806L431.54 257.775C430.97 274.887 444.38 289.22 461.491 289.789L462.523 258.806ZM465.503 169.256L464.472 200.239L551.976 203.151L553.007 172.168L554.038 141.186L466.535 138.273L465.503 169.256ZM553.007 172.168L522.024 171.137L519.043 260.688L550.026 261.719L581.009 262.75L583.99 173.2L553.007 172.168ZM550.026 261.719L551.058 230.736L533.147 230.14L532.116 261.123L531.085 292.106L548.995 292.702L550.026 261.719ZM532.116 261.123L563.099 262.154L565.53 189.106L534.547 188.075L503.565 187.044L501.133 260.092L532.116 261.123ZM534.547 188.075L535.579 157.092L483.895 155.372L482.864 186.355L481.833 217.338L533.516 219.058L534.547 188.075ZM482.864 186.355L451.881 185.324L449.45 258.371L480.433 259.403L511.416 260.434L513.847 187.386L482.864 186.355ZM480.433 259.403L481.464 228.42L463.554 227.824L462.523 258.806L461.491 289.789L479.402 290.385L480.433 259.403ZM462.523 258.806L493.506 259.838L496.486 170.287L465.503 169.256L434.52 168.225L431.54 257.775L462.523 258.806ZM563.782 262.177L532.799 261.145C532.229 278.257 545.639 292.59 562.75 293.16L563.782 262.177ZM566.762 172.626L567.793 141.643C550.682 141.074 536.349 154.484 535.779 171.595L566.762 172.626ZM582.56 236.675L583.592 205.692C566.48 205.123 552.147 218.533 551.578 235.644L582.56 236.675ZM581.692 262.773L580.661 293.756C597.772 294.325 612.105 280.915 612.675 263.804L581.692 262.773ZM584.123 189.725L585.154 158.742C568.043 158.173 553.71 171.583 553.14 188.694L584.123 189.725ZM583.118 219.917L552.135 218.885C551.566 235.997 564.976 250.33 582.087 250.899L583.118 219.917ZM563.782 262.177L594.764 263.208L597.745 173.658L566.762 172.626L535.779 171.595L532.799 261.145L563.782 262.177ZM566.762 172.626L565.731 203.609L611.53 205.133L612.561 174.151L613.592 143.168L567.793 141.643L566.762 172.626ZM612.561 174.151L611.53 205.133C614.452 205.231 615.851 206.248 616.095 206.473C616.184 206.554 616.057 206.459 615.931 206.164C615.79 205.835 615.841 205.708 615.831 206.021L646.813 207.052L677.796 208.084C679.137 167.789 645.458 144.228 613.592 143.168L612.561 174.151ZM646.813 207.052L615.831 206.021C615.846 205.56 615.988 205.138 616.111 204.909C616.202 204.737 616.155 204.906 615.736 205.246C615.312 205.59 614.666 205.976 613.837 206.256C613.018 206.533 612.204 206.645 611.48 206.621L610.449 237.604L609.418 268.586C640.559 269.623 676.494 247.206 677.796 208.084L646.813 207.052ZM610.449 237.604L611.48 206.621L583.592 205.692L582.56 236.675L581.529 267.658L609.418 268.586L610.449 237.604ZM582.56 236.675L551.578 235.644L550.709 261.742L581.692 262.773L612.675 263.804L613.543 237.706L582.56 236.675ZM581.692 262.773L582.723 231.79L564.813 231.194L563.782 262.177L562.75 293.16L580.661 293.756L581.692 262.773ZM628.903 206.456L659.886 207.487C660.878 177.673 635.981 160.434 613.043 159.671L612.012 190.653L610.98 221.636C609.411 221.584 606.286 220.946 603.181 218.054C599.84 214.942 597.76 210.247 597.92 205.425L628.903 206.456ZM612.012 190.653L613.043 159.671L585.154 158.742L584.123 189.725L583.092 220.708L610.98 221.636L612.012 190.653ZM584.123 189.725L553.14 188.694L552.135 218.885L583.118 219.917L614.101 220.948L615.106 190.756L584.123 189.725ZM583.118 219.917L582.087 250.899L609.975 251.828L611.007 220.845L612.038 189.862L584.149 188.934L583.118 219.917ZM611.007 220.845L609.975 251.828C632.443 252.575 658.897 237.215 659.886 207.487L628.903 206.456L597.92 205.425C598.105 199.88 600.888 195.382 604.102 192.794C607.157 190.334 610.177 189.8 612.038 189.862L611.007 220.845ZM652.441 220.431L683.424 221.462C683.705 213.037 689.567 205.81 702.093 206.227L703.125 175.244L704.156 144.261C660.394 142.804 622.975 173.839 621.459 219.4L652.441 220.431ZM703.125 175.244L702.093 206.227C709.14 206.461 713.455 208.904 715.753 211.208C717.872 213.332 719.776 216.778 719.58 222.666L750.563 223.697L781.546 224.728C782.282 202.599 774.476 182.285 759.646 167.42C744.996 152.734 725.126 144.959 704.156 144.261L703.125 175.244ZM750.563 223.697L719.58 222.666C719.394 228.251 717.345 231.527 715.031 233.552C712.539 235.733 708.04 237.882 701.048 237.649L700.016 268.632L698.985 299.615C742.151 301.052 779.994 271.37 781.546 224.728L750.563 223.697ZM700.016 268.632L701.048 237.649C688.537 237.233 683.16 229.397 683.424 221.462L652.441 220.431L621.459 219.4C619.951 264.683 655.463 298.166 698.985 299.615L700.016 268.632ZM670.352 221.027L639.369 219.996C638.164 256.176 666.134 281.36 699.556 282.473L700.587 251.49L701.618 220.507C700.537 220.471 700.01 220.275 699.913 220.235C699.823 220.198 700.056 220.281 700.405 220.631C700.764 220.992 701.053 221.445 701.221 221.882C701.388 222.317 701.322 222.437 701.334 222.058L670.352 221.027ZM700.587 251.49L699.556 282.473C715.682 283.009 731.64 278.153 743.99 267.143C756.442 256.041 763.089 240.554 763.636 224.132L732.653 223.101L701.67 222.069C701.652 222.613 701.561 222.583 701.74 222.186C701.925 221.775 702.262 221.282 702.731 220.864C703.193 220.452 703.529 220.337 703.495 220.348C703.445 220.365 702.869 220.548 701.618 220.507L700.587 251.49ZM732.653 223.101L763.636 224.132C764.183 207.69 758.7 191.693 746.936 179.672C735.281 167.763 719.626 161.937 703.585 161.404L702.554 192.386L701.523 223.369C702.813 223.412 703.386 223.638 703.426 223.654C703.444 223.662 703.086 223.509 702.625 223.037C702.407 222.815 702.21 222.565 702.045 222.303C701.88 222.041 701.774 221.809 701.71 221.637C701.574 221.267 701.694 221.344 701.67 222.069L732.653 223.101ZM702.554 192.386L703.585 161.404C687.597 160.871 671.664 165.687 659.283 176.63C646.749 187.709 639.925 203.274 639.369 219.996L670.352 221.027L701.334 222.058C701.354 221.455 701.457 221.457 701.283 221.84C701.202 222.017 701.081 222.234 700.909 222.466C700.738 222.698 700.544 222.907 700.343 223.086C699.917 223.462 699.625 223.553 699.693 223.53C699.776 223.503 700.345 223.33 701.523 223.369L702.554 192.386ZM833.135 240.149L834.166 209.166C822.547 208.779 811.689 214.925 806.04 225.086L833.135 240.149ZM852.068 240.779L881.678 249.958C884.541 240.724 882.931 230.683 877.326 222.806C871.721 214.929 862.762 210.118 853.099 209.796L852.068 240.779ZM852.988 213.146L851.957 244.129C861.651 244.452 870.938 240.218 877.053 232.688C883.167 225.158 885.405 215.2 883.099 205.778L852.988 213.146ZM834.054 212.516L805.814 225.303C810.681 236.052 821.229 243.106 833.023 243.499L834.054 212.516ZM774.359 224.489L743.376 223.458C742.172 259.638 770.142 284.822 803.563 285.934L804.594 254.951L805.626 223.969C804.544 223.933 804.017 223.737 803.92 223.697C803.83 223.66 804.063 223.742 804.413 224.093C804.771 224.453 805.061 224.907 805.228 225.343C805.395 225.779 805.329 225.898 805.342 225.52L774.359 224.489ZM804.594 254.951L803.563 285.934C826.619 286.702 848.581 276.164 860.229 255.211L833.135 240.149L806.04 225.086C806.156 224.878 806.341 224.62 806.598 224.369C806.854 224.119 807.097 223.959 807.261 223.872C807.421 223.788 807.424 223.817 807.193 223.867C806.959 223.917 806.451 223.996 805.626 223.969L804.594 254.951ZM833.135 240.149L832.103 271.131L851.037 271.762L852.068 240.779L853.099 209.796L834.166 209.166L833.135 240.149ZM852.068 240.779L822.458 231.6C821.052 236.137 816.361 241.487 805.055 241.111L804.024 272.094L802.992 303.077C837.741 304.233 870.745 285.225 881.678 249.958L852.068 240.779ZM804.024 272.094L805.055 241.111C792.544 240.695 787.168 232.859 787.432 224.924L756.449 223.893L725.466 222.861C723.959 268.145 759.47 301.628 802.992 303.077L804.024 272.094ZM756.449 223.893L787.432 224.924C787.712 216.499 793.574 209.272 806.101 209.689L807.132 178.706L808.163 147.723C764.401 146.266 726.982 177.301 725.466 222.861L756.449 223.893ZM807.132 178.706L806.101 209.689C817.258 210.06 821.676 215.611 822.876 220.514L852.988 213.146L883.099 205.778C874.378 170.137 843.06 148.884 808.163 147.723L807.132 178.706ZM852.988 213.146L854.019 182.163L835.085 181.533L834.054 212.516L833.023 243.499L851.957 244.129L852.988 213.146ZM834.054 212.516L862.294 199.729C852.111 177.239 830.412 165.625 807.593 164.865L806.561 195.848L805.53 226.831C807.398 226.893 807.78 227.314 807.32 227.032C807.105 226.9 806.795 226.664 806.48 226.308C806.163 225.951 805.944 225.589 805.814 225.303L834.054 212.516ZM806.561 195.848L807.593 164.865C791.604 164.333 775.672 169.149 763.291 180.092C750.756 191.17 743.933 206.736 743.376 223.458L774.359 224.489L805.342 225.52C805.362 224.916 805.464 224.919 805.29 225.302C805.21 225.479 805.088 225.696 804.917 225.928C804.746 226.159 804.552 226.369 804.35 226.548C803.925 226.924 803.632 227.015 803.701 226.992C803.784 226.964 804.353 226.792 805.53 226.831L806.561 195.848ZM887.285 272.944L856.302 271.913C855.732 289.024 869.142 303.357 886.253 303.927L887.285 272.944ZM889.716 199.897L920.699 200.928C921.268 183.816 907.858 169.483 890.747 168.914L889.716 199.897ZM857.989 198.841L827.007 197.809C826.437 214.921 839.847 229.254 856.958 229.823L857.989 198.841ZM858.539 182.338L859.57 151.355C842.459 150.785 828.125 164.195 827.556 181.307L858.539 182.338ZM939.646 185.037L970.629 186.069C971.198 168.957 957.788 154.624 940.677 154.054L939.646 185.037ZM939.096 201.54L938.065 232.523C955.177 233.093 969.51 219.683 970.079 202.571L939.096 201.54ZM907.626 200.493L908.657 169.51C891.546 168.94 877.213 182.35 876.643 199.461L907.626 200.493ZM905.195 273.54L904.163 304.523C921.275 305.093 935.608 291.683 936.177 274.571L905.195 273.54ZM887.285 272.944L918.267 273.975L920.699 200.928L889.716 199.897L858.733 198.865L856.302 271.913L887.285 272.944ZM889.716 199.897L890.747 168.914L859.021 167.858L857.989 198.841L856.958 229.823L888.685 230.879L889.716 199.897ZM857.989 198.841L888.972 199.872L889.522 183.369L858.539 182.338L827.556 181.307L827.007 197.809L857.989 198.841ZM858.539 182.338L857.507 213.321L938.615 216.02L939.646 185.037L940.677 154.054L859.57 151.355L858.539 182.338ZM939.646 185.037L908.663 184.006L908.114 200.509L939.096 201.54L970.079 202.571L970.629 186.069L939.646 185.037ZM939.096 201.54L940.128 170.557L908.657 169.51L907.626 200.493L906.595 231.476L938.065 232.523L939.096 201.54ZM907.626 200.493L876.643 199.461L874.212 272.509L905.195 273.54L936.177 274.571L938.609 201.524L907.626 200.493ZM905.195 273.54L906.226 242.557L888.316 241.961L887.285 272.944L886.253 303.927L904.163 304.523L905.195 273.54ZM941.102 230.039L972.084 231.07C972.365 222.645 978.227 215.418 990.754 215.834L991.785 184.852L992.816 153.869C949.054 152.412 911.635 183.447 910.119 229.007L941.102 230.039ZM991.785 184.852L990.754 215.834C997.8 216.069 1002.12 218.512 1004.41 220.815C1006.53 222.94 1008.44 226.386 1008.24 232.273L1039.22 233.305L1070.21 234.336C1070.94 212.207 1063.14 191.893 1048.31 177.028C1033.66 162.342 1013.79 154.567 992.816 153.869L991.785 184.852ZM1039.22 233.305L1008.24 232.273C1008.05 237.859 1006 241.134 1003.69 243.16C1001.2 245.341 996.7 247.49 989.708 247.257L988.676 278.24L987.645 309.223C1030.81 310.659 1068.65 280.978 1070.21 234.336L1039.22 233.305ZM988.676 278.24L989.708 247.257C977.197 246.841 971.82 239.005 972.084 231.07L941.102 230.039L910.119 229.007C908.612 274.291 944.123 307.774 987.645 309.223L988.676 278.24ZM959.012 230.635L928.029 229.604C926.825 265.784 954.795 290.968 988.216 292.08L989.247 261.097L990.278 230.115C989.197 230.079 988.67 229.883 988.573 229.843C988.483 229.806 988.716 229.888 989.065 230.239C989.424 230.599 989.713 231.053 989.881 231.489C990.048 231.924 989.982 232.044 989.995 231.666L959.012 230.635ZM989.247 261.097L988.216 292.08C1004.34 292.617 1020.3 287.76 1032.65 276.75C1045.1 265.649 1051.75 250.161 1052.3 233.74L1021.31 232.708L990.33 231.677C990.312 232.221 990.222 232.191 990.4 231.794C990.585 231.383 990.922 230.89 991.392 230.471C991.853 230.06 992.189 229.945 992.155 229.956C992.105 229.973 991.529 230.156 990.278 230.115L989.247 261.097ZM1021.31 232.708L1052.3 233.74C1052.84 217.297 1047.36 201.301 1035.6 189.28C1023.94 177.371 1008.29 171.545 992.245 171.011L991.214 201.994L990.183 232.977C991.473 233.02 992.046 233.246 992.086 233.262C992.104 233.27 991.747 233.117 991.285 232.645C991.067 232.423 990.87 232.173 990.705 231.911C990.54 231.649 990.434 231.417 990.37 231.245C990.235 230.875 990.354 230.952 990.33 231.677L1021.31 232.708ZM991.214 201.994L992.245 171.011C976.257 170.479 960.324 175.295 947.943 186.238C935.409 197.316 928.585 212.882 928.029 229.604L959.012 230.635L989.995 231.666C990.015 231.062 990.117 231.065 989.943 231.448C989.863 231.625 989.741 231.842 989.57 232.074C989.398 232.305 989.205 232.515 989.003 232.694C988.577 233.07 988.285 233.161 988.353 233.138C988.436 233.11 989.005 232.938 990.183 232.977L991.214 201.994ZM376.087 377.997L345.104 376.966C344.535 394.077 357.944 408.41 375.056 408.98L376.087 377.997ZM378.518 304.949L409.501 305.981C410.071 288.869 396.661 274.536 379.549 273.967L378.518 304.949ZM346.792 303.894L315.809 302.862C315.239 319.974 328.649 334.307 345.761 334.876L346.792 303.894ZM347.341 287.391L348.372 256.408C331.261 255.838 316.928 269.248 316.358 286.359L347.341 287.391ZM428.448 290.09L459.431 291.121C460.001 274.01 446.591 259.677 429.479 259.107L428.448 290.09ZM427.899 306.593L426.868 337.576C443.979 338.145 458.312 324.736 458.882 307.624L427.899 306.593ZM396.428 305.546L397.46 274.563C380.348 273.993 366.015 287.403 365.445 304.514L396.428 305.546ZM393.997 378.593L392.966 409.576C410.077 410.146 424.41 396.736 424.98 379.624L393.997 378.593ZM376.087 377.997L407.07 379.028L409.501 305.981L378.518 304.949L347.535 303.918L345.104 376.966L376.087 377.997ZM378.518 304.949L379.549 273.967L347.823 272.911L346.792 303.894L345.761 334.876L377.487 335.932L378.518 304.949ZM346.792 303.894L377.775 304.925L378.324 288.422L347.341 287.391L316.358 286.359L315.809 302.862L346.792 303.894ZM347.341 287.391L346.31 318.373L427.417 321.073L428.448 290.09L429.479 259.107L348.372 256.408L347.341 287.391ZM428.448 290.09L397.465 289.059L396.916 305.562L427.899 306.593L458.882 307.624L459.431 291.121L428.448 290.09ZM427.899 306.593L428.93 275.61L397.46 274.563L396.428 305.546L395.397 336.528L426.868 337.576L427.899 306.593ZM396.428 305.546L365.445 304.514L363.014 377.562L393.997 378.593L424.98 379.624L427.411 306.577L396.428 305.546ZM393.997 378.593L395.028 347.61L377.118 347.014L376.087 377.997L375.056 408.98L392.966 409.576L393.997 378.593ZM415.278 379.301L388.044 364.492C382.909 373.936 383.033 385.367 388.372 394.698C393.711 404.028 403.503 409.927 414.247 410.284L415.278 379.301ZM463.162 291.246L464.193 260.263C452.471 259.873 441.531 266.132 435.928 276.436L463.162 291.246ZM483.119 291.91L511.248 278.88C506.328 268.26 495.847 261.316 484.15 260.927L483.119 291.91ZM525.297 382.963L524.266 413.946C535.023 414.304 545.196 409.057 551.14 400.085C557.085 391.113 557.95 379.699 553.426 369.933L525.297 382.963ZM505.34 382.299L477.199 395.301C482.112 405.936 492.601 412.892 504.309 413.282L505.34 382.299ZM495.425 360.837L523.567 347.836C518.653 337.201 508.164 330.244 496.456 329.855L495.425 360.837ZM446.428 359.207L447.459 328.224C435.751 327.834 424.823 334.078 419.213 344.362L446.428 359.207ZM435.107 379.961L434.076 410.944C445.784 411.334 456.712 405.09 462.322 394.806L435.107 379.961ZM455.16 343.104L427.957 328.24C422.797 337.683 422.903 349.127 428.238 358.473C433.573 367.819 443.374 373.729 454.129 374.087L455.16 343.104ZM487.654 344.186L486.623 375.169C497.379 375.527 507.55 370.281 513.495 361.311C519.44 352.34 520.307 340.929 515.786 331.163L487.654 344.186ZM472.48 311.407L500.612 298.384C495.695 287.76 485.212 280.813 473.512 280.424C461.812 280.034 450.89 286.269 445.277 296.542L472.48 311.407ZM415.278 379.301L442.512 394.111L490.396 306.055L463.162 291.246L435.928 276.436L388.044 364.492L415.278 379.301ZM463.162 291.246L462.131 322.228L482.088 322.893L483.119 291.91L484.15 260.927L464.193 260.263L463.162 291.246ZM483.119 291.91L454.99 304.94L497.169 395.993L525.297 382.963L553.426 369.933L511.248 278.88L483.119 291.91ZM525.297 382.963L526.329 351.981L506.372 351.316L505.34 382.299L504.309 413.282L524.266 413.946L525.297 382.963ZM505.34 382.299L533.482 369.297L523.567 347.836L495.425 360.837L467.283 373.839L477.199 395.301L505.34 382.299ZM495.425 360.837L496.456 329.855L447.459 328.224L446.428 359.207L445.397 390.189L494.394 391.82L495.425 360.837ZM446.428 359.207L419.213 344.362L407.892 365.117L435.107 379.961L462.322 394.806L473.643 374.051L446.428 359.207ZM435.107 379.961L436.139 348.979L416.309 348.319L415.278 379.301L414.247 410.284L434.076 410.944L435.107 379.961ZM455.16 343.104L454.129 374.087L486.623 375.169L487.654 344.186L488.686 313.203L456.192 312.121L455.16 343.104ZM487.654 344.186L515.786 331.163L500.612 298.384L472.48 311.407L444.349 324.43L459.523 357.209L487.654 344.186ZM472.48 311.407L445.277 296.542L427.957 328.24L455.16 343.104L482.364 357.969L499.684 326.271L472.48 311.407ZM547.898 347.087L548.93 316.104C531.818 315.535 517.485 328.945 516.915 346.056L547.898 347.087ZM546.681 383.675L545.649 414.658C562.761 415.227 577.094 401.818 577.663 384.706L546.681 383.675ZM528.77 383.079L497.788 382.048C497.218 399.159 510.628 413.492 527.739 414.062L528.77 383.079ZM531.751 293.529L532.782 262.546C515.671 261.976 501.338 275.386 500.768 292.497L531.751 293.529ZM549.661 294.125L580.644 295.156C581.213 278.045 567.804 263.711 550.692 263.142L549.661 294.125ZM548.443 330.712L517.46 329.681C516.891 346.793 530.301 361.126 547.412 361.695L548.443 330.712ZM558.678 331.053L557.646 362.036C566.114 362.318 574.327 359.122 580.377 353.192L558.678 331.053ZM594.82 295.628L595.851 264.645C587.384 264.363 579.171 267.559 573.121 273.489L594.82 295.628ZM619.127 296.437L640.896 318.507C649.716 309.807 652.51 296.69 647.999 285.151C643.489 273.612 632.541 265.866 620.158 265.454L619.127 296.437ZM575.164 339.798L553.395 317.728C541.336 329.622 541.056 348.994 552.767 361.232L575.164 339.798ZM619.472 386.098L618.441 417.081C631.036 417.5 642.632 410.253 647.774 398.748C652.916 387.242 650.582 373.769 641.869 364.664L619.472 386.098ZM594.526 385.268L572.292 406.87C577.88 412.621 585.48 415.984 593.495 416.25L594.526 385.268ZM557.749 347.415L579.983 325.813C574.394 320.061 566.795 316.699 558.78 316.432L557.749 347.415ZM547.898 347.087L516.915 346.056L515.698 382.644L546.681 383.675L577.663 384.706L578.881 348.119L547.898 347.087ZM546.681 383.675L547.712 352.692L529.802 352.096L528.77 383.079L527.739 414.062L545.649 414.658L546.681 383.675ZM528.77 383.079L559.753 384.11L562.734 294.56L531.751 293.529L500.768 292.497L497.788 382.048L528.77 383.079ZM531.751 293.529L530.72 324.511L548.63 325.107L549.661 294.125L550.692 263.142L532.782 262.546L531.751 293.529ZM549.661 294.125L518.678 293.093L517.46 329.681L548.443 330.712L579.426 331.744L580.644 295.156L549.661 294.125ZM548.443 330.712L547.412 361.695L557.646 362.036L558.678 331.053L559.709 300.07L549.475 299.73L548.443 330.712ZM558.678 331.053L580.377 353.192L616.52 317.767L594.82 295.628L573.121 273.489L536.978 308.914L558.678 331.053ZM594.82 295.628L593.789 326.611L618.095 327.42L619.127 296.437L620.158 265.454L595.851 264.645L594.82 295.628ZM619.127 296.437L597.358 274.366L553.395 317.728L575.164 339.798L596.933 361.869L640.896 318.507L619.127 296.437ZM575.164 339.798L552.767 361.232L597.076 407.531L619.472 386.098L641.869 364.664L597.56 318.365L575.164 339.798ZM619.472 386.098L620.503 355.115L595.557 354.285L594.526 385.268L593.495 416.25L618.441 417.081L619.472 386.098ZM594.526 385.268L616.76 363.665L579.983 325.813L557.749 347.415L535.515 369.017L572.292 406.87L594.526 385.268ZM557.749 347.415L558.78 316.432L548.93 316.104L547.898 347.087L546.867 378.07L556.718 378.398L557.749 347.415ZM693.991 357.585L695.022 326.602C683.403 326.215 672.545 332.362 666.896 342.522L693.991 357.585ZM712.924 358.215L742.534 367.394C745.397 358.16 743.787 348.119 738.182 340.242C732.577 332.365 723.618 327.554 713.956 327.232L712.924 358.215ZM713.844 330.582L712.813 361.565C722.507 361.888 731.794 357.654 737.909 350.124C744.024 342.594 746.261 332.636 743.956 323.214L713.844 330.582ZM694.911 329.952L666.671 342.739C671.538 353.488 682.086 360.543 693.879 360.935L694.911 329.952ZM635.215 341.925L604.232 340.894C603.028 377.075 630.998 402.258 664.419 403.371L665.451 372.388L666.482 341.405C665.4 341.369 664.874 341.173 664.776 341.133C664.686 341.096 664.92 341.179 665.269 341.529C665.628 341.89 665.917 342.343 666.085 342.78C666.252 343.215 666.186 343.335 666.198 342.956L635.215 341.925ZM665.451 372.388L664.419 403.371C687.476 404.138 709.437 393.6 721.085 372.648L693.991 357.585L666.896 342.522C667.012 342.314 667.198 342.056 667.454 341.805C667.71 341.556 667.953 341.395 668.117 341.309C668.278 341.224 668.28 341.253 668.05 341.303C667.816 341.354 667.307 341.432 666.482 341.405L665.451 372.388ZM693.991 357.585L692.96 388.568L711.893 389.198L712.924 358.215L713.956 327.232L695.022 326.602L693.991 357.585ZM712.924 358.215L683.314 349.036C681.908 353.573 677.217 358.924 665.911 358.547L664.88 389.53L663.849 420.513C698.598 421.67 731.602 402.661 742.534 367.394L712.924 358.215ZM664.88 389.53L665.911 358.547C653.4 358.131 648.024 350.295 648.288 342.36L617.305 341.329L586.322 340.298C584.815 385.581 620.327 419.065 663.849 420.513L664.88 389.53ZM617.305 341.329L648.288 342.36C648.568 333.935 654.43 326.708 666.957 327.125L667.988 296.142L669.02 265.159C625.258 263.703 587.839 294.737 586.322 340.298L617.305 341.329ZM667.988 296.142L666.957 327.125C678.115 327.496 682.533 333.048 683.732 337.95L713.844 330.582L743.956 323.214C735.235 287.573 703.917 266.321 669.02 265.159L667.988 296.142ZM713.844 330.582L714.875 299.6L695.942 298.969L694.911 329.952L693.879 360.935L712.813 361.565L713.844 330.582ZM694.911 329.952L723.151 317.166C712.968 294.676 691.269 283.061 668.449 282.302L667.418 313.284L666.387 344.267C668.254 344.329 668.637 344.75 668.176 344.468C667.961 344.337 667.652 344.101 667.336 343.745C667.019 343.387 666.8 343.026 666.671 342.739L694.911 329.952ZM667.418 313.284L668.449 282.302C652.461 281.769 636.528 286.585 624.147 297.528C611.613 308.607 604.789 324.172 604.232 340.894L635.215 341.925L666.198 342.956C666.218 342.353 666.32 342.355 666.146 342.738C666.066 342.915 665.945 343.132 665.773 343.364C665.602 343.596 665.408 343.806 665.206 343.984C664.781 344.36 664.488 344.451 664.557 344.428C664.64 344.401 665.209 344.228 666.387 344.267L667.418 313.284ZM809.931 392.437L808.9 423.42C826.011 423.989 840.344 410.58 840.914 393.468L809.931 392.437ZM792.021 391.841L761.038 390.81C760.468 407.921 773.878 422.254 790.989 422.824L792.021 391.841ZM794.009 332.098L824.992 333.129C825.416 320.391 818 308.692 806.3 303.639C794.599 298.585 780.998 301.209 772.016 310.251L794.009 332.098ZM736.499 389.993L735.468 420.976C744.079 421.262 752.421 417.953 758.493 411.84L736.499 389.993ZM722.043 389.512L691.061 388.481C690.491 405.592 703.901 419.925 721.012 420.495L722.043 389.512ZM725.024 299.961L726.055 268.979C708.944 268.409 694.611 281.819 694.041 298.93L725.024 299.961ZM742.934 300.558L773.917 301.589C774.486 284.477 761.077 270.144 743.965 269.575L742.934 300.558ZM740.958 359.917L709.976 358.885C709.552 371.599 716.939 383.281 728.606 388.349C740.273 393.418 753.852 390.845 762.856 381.859L740.958 359.917ZM798.583 302.41L799.615 271.427C791.051 271.142 782.751 274.414 776.685 280.467L798.583 302.41ZM812.911 302.887L843.894 303.918C844.464 286.807 831.054 272.473 813.943 271.904L812.911 302.887ZM809.931 392.437L810.962 361.454L793.052 360.858L792.021 391.841L790.989 422.824L808.9 423.42L809.931 392.437ZM792.021 391.841L823.004 392.872L824.992 333.129L794.009 332.098L763.026 331.067L761.038 390.81L792.021 391.841ZM794.009 332.098L772.016 310.251L714.506 368.146L736.499 389.993L758.493 411.84L816.003 353.945L794.009 332.098ZM736.499 389.993L737.531 359.01L723.075 358.529L722.043 389.512L721.012 420.495L735.468 420.976L736.499 389.993ZM722.043 389.512L753.026 390.543L756.007 300.993L725.024 299.961L694.041 298.93L691.061 388.481L722.043 389.512ZM725.024 299.961L723.993 330.944L741.903 331.54L742.934 300.558L743.965 269.575L726.055 268.979L725.024 299.961ZM742.934 300.558L711.951 299.526L709.976 358.885L740.958 359.917L771.941 360.948L773.917 301.589L742.934 300.558ZM740.958 359.917L762.856 381.859L820.481 324.353L798.583 302.41L776.685 280.467L719.061 337.974L740.958 359.917ZM798.583 302.41L797.552 333.393L811.88 333.869L812.911 302.887L813.943 271.904L799.615 271.427L798.583 302.41ZM812.911 302.887L781.929 301.855L778.948 391.406L809.931 392.437L840.914 393.468L843.894 303.918L812.911 302.887Z" fill="white" mask="url(#path-1-outside-1_112_78)"/>
</g>
<defs>
<filter id="filter0_d_112_78" x="0.427059" y="0.939453" width="1194.29" height="441.498" filterUnits="userSpaceOnUse" color-interpolation-filters="sRGB">
<feFlood flood-opacity="0" result="BackgroundImageFix"/>
<feColorMatrix in="SourceAlpha" type="matrix" values="0 0 0 0 0 0 0 0 0 0 0 0 0 0 0 0 0 0 127 0" result="hardAlpha"/>
<feOffset dx="7" dy="9"/>
<feGaussianBlur stdDeviation="5"/>
<feComposite in2="hardAlpha" operator="out"/>
<feColorMatrix type="matrix" values="0 0 0 0 0.0493713 0 0 0 0 0.0705461 0 0 0 0 0.684615 0 0 0 0.25 0"/>
<feBlend mode="normal" in2="BackgroundImageFix" result="effect1_dropShadow_112_78"/>
<feBlend mode="normal" in="SourceGraphic" in2="effect1_dropShadow_112_78" result="shape"/>
</filter>
</defs>
</svg>
